<svg xmlns="http://www.w3.org/2000/svg" xmlns:xlink="http://www.w3.org/1999/xlink" xmlns:fi="http://pattern.flaticon.com/" width="700" height="350"><defs><g id="a" fill="#7d7d7d"><path d="m380.59 204.04 30.082-1.907.16-.012c21.438-1.809 40.68-13.039 52.797-30.82l23.781-34.89c20.7-30.376 28.719-67.063 22.574-103.302a31.88 31.88 0 0 0-10.246-18.46 31.872 31.872 0 0 0-19.558-7.962c-36.727-1.757-72.176 10.606-99.848 34.797l-31.789 27.793c-16.2 14.16-25.043 34.61-24.27 56.114.004.05.004.105.008.16l1.715 30.09c.668 11.73-3.633 23.304-11.777 31.734L65.867 442.508c-6.648 6.933-10.082 16.445-9.664 26.785.461 11.383 5.684 22.562 13.973 29.91 7.488 6.637 17.781 10.418 28.07 10.418 1.102 0 2.203-.043 3.3-.133 10.317-.824 19.352-5.37 25.47-12.847L350.48 219.555c7.41-9.118 18.387-14.774 30.11-15.516zm-42.04 5.858L115.106 486.961c-3.414 4.172-8.664 6.742-14.78 7.23-7.278.582-14.74-1.84-19.966-6.472-5.226-4.637-8.523-11.754-8.816-19.047-.25-6.129 1.668-11.649 5.363-15.5l248.332-255.113c11.133-11.52 16.992-27.297 16.086-43.29l-1.715-30.011c-.582-16.832 6.352-32.836 19.036-43.926l31.789-27.793c24.671-21.566 56.289-32.578 89.015-31.023 3.727.18 7.313 1.64 10.106 4.117a16.47 16.47 0 0 1 5.297 9.539c5.476 32.308-1.672 65.012-20.125 92.09l-23.782 34.894c-9.488 13.922-24.547 22.723-41.328 24.164l-30 1.899c-15.984 1.015-30.945 8.726-41.066 21.18zm0 0" transform="matrix(.0858 -.03875 .03875 .0858 -8.84 273.89)"/><path d="M497.82 440.57 331.3 288.902a7.677 7.677 0 0 0-10.843.504 7.68 7.68 0 0 0 .508 10.844L487.44 451.883c3.961 3.66 6.207 9.054 6.329 15.187.144 7.297-2.72 14.598-7.66 19.54-4.938 4.937-12.227 7.808-19.54 7.66-6.132-.122-11.527-2.368-15.148-6.286L303.039 325.078a7.677 7.677 0 0 0-10.844-.508 7.677 7.677 0 0 0-.504 10.844L440.11 498.36c6.524 7.055 15.813 11.055 26.16 11.258.27.004.536.008.805.008 11.121 0 22.242-4.512 29.887-12.16 7.836-7.836 12.379-19.309 12.152-30.695-.203-10.348-4.199-19.637-11.293-26.2zM92.61 202.586a71.071 71.071 0 0 0 46.632 18.793l30.14.094c11.75.035 23.044 5.023 30.97 13.66l13.277 14.574a7.65 7.65 0 0 0 5.676 2.508 7.64 7.64 0 0 0 5.164-2 7.673 7.673 0 0 0 .508-10.844l-13.297-14.594c-10.828-11.804-26.227-18.601-42.246-18.656l-30.059-.094a55.766 55.766 0 0 1-36.02-14.41L16.008 87.781a2.64 2.64 0 0 1 .156-3.582c.672-.676 1.461-.773 1.871-.773s1.2.097 1.875.773l79.508 79.512c7.86 7.86 20.648 7.86 28.508-.004l9.344-9.34v-.004l16.59-16.59s.003 0 .003-.003l.004-.004 9.34-9.34c7.86-7.86 7.86-20.649 0-28.508L83.699 20.41a2.655 2.655 0 0 1 0-3.746 2.64 2.64 0 0 1 3.582-.156l103.836 87.351a55.74 55.74 0 0 1 14.414 36.016l.09 30.063c.055 16.015 6.856 31.414 18.676 42.265l14.226 12.957a7.676 7.676 0 0 0 10.844-.504 7.68 7.68 0 0 0-.508-10.844l-14.203-12.937c-8.66-7.945-13.644-19.242-13.683-30.988l-.094-30.14c0-.056 0-.11-.004-.165a71.071 71.071 0 0 0-18.79-46.473 7.67 7.67 0 0 0-.702-.675L97.16 4.762c-7.203-6.063-17.656-5.61-24.312 1.047-7.02 7.02-7.02 18.437 0 25.453l79.507 79.511a4.814 4.814 0 0 1 0 6.801l-3.917 3.914-88.614-88.61c-2.996-3-7.855-3-10.851 0a7.674 7.674 0 0 0 0 10.852l88.613 88.614-5.742 5.738-88.614-88.61a7.674 7.674 0 0 0-10.851 0c-3 2.997-3 7.856 0 10.852l88.61 88.614-3.915 3.917a4.814 4.814 0 0 1-6.8 0L30.761 73.348c-3.399-3.399-7.918-5.274-12.727-5.274S8.707 69.95 5.31 73.348c-6.657 6.656-7.106 17.109-1.047 24.316l87.675 104.219c.208.25.434.484.672.703zm0 0" transform="matrix(.0858 -.03875 .03875 .0858 -8.84 273.89)"/></g><g id="c" fill="#7d7d7d"><path d="M503.916 404.219h-13.619c-.736-21.668-4.422-42.998-10.989-63.506-7.146-22.313-17.602-43.385-31.086-62.658a235.217 235.217 0 0 0-47.579-50.262 233.636 233.636 0 0 0-60.609-34.418c-24.147-9.276-49.495-14.414-75.473-15.342l23.946-23.949c10.537-10.538 10.537-27.685-.001-38.224-5.103-5.102-11.889-7.913-19.108-7.913-4.775 0-9.36 1.23-13.395 3.538-4.035-2.308-8.621-3.538-13.395-3.538-7.217 0-14.004 2.81-19.109 7.912-5.106 5.105-7.919 11.893-7.919 19.114s2.813 14.008 7.918 19.112l23.949 23.949c-16.684.6-33.227 2.942-49.296 7.021a232.898 232.898 0 0 0-52.579 20.394c-3.934 2.102-5.422 7.006-3.32 10.941a8.072 8.072 0 0 0 7.136 4.268 8.136 8.136 0 0 0 3.816-.948 216.807 216.807 0 0 1 48.936-18.982c17.086-4.338 34.779-6.572 52.587-6.684.416.066.84.11 1.275.11.447 0 .882-.045 1.308-.116 26.512.165 52.386 5.012 76.925 14.428 20.285 7.794 39.267 18.573 56.438 32.046a219.62 219.62 0 0 1 44.292 46.802c12.557 17.936 22.301 37.564 28.951 58.336 6.061 18.924 9.481 38.585 10.209 58.569H37.891c.547-14.987 2.598-29.853 6.162-44.298a216.743 216.743 0 0 1 17.969-47.795 218.98 218.98 0 0 1 28.101-41.703 219.97 219.97 0 0 1 36.735-34.116c3.59-2.641 4.365-7.706 1.725-11.296a8.096 8.096 0 0 0-6.51-3.299 7.958 7.958 0 0 0-4.786 1.574 236.064 236.064 0 0 0-39.441 36.617A235.143 235.143 0 0 0 47.655 304.7a233.428 233.428 0 0 0-19.305 51.35c-3.867 15.706-6.085 31.875-6.64 48.168H8.084A8.084 8.084 0 0 0 0 412.302c0 22.288 18.133 40.421 40.421 40.421h431.158c22.288 0 40.421-18.133 40.421-40.421a8.083 8.083 0 0 0-8.084-8.083zM256.004 163.724l-21.074-21.075c-2.054-2.05-3.183-4.777-3.183-7.678s1.13-5.627 3.181-7.678a10.791 10.791 0 0 1 7.679-3.179c2.902 0 5.63 1.13 7.682 3.18a8.082 8.082 0 0 0 11.429-.001 10.79 10.79 0 0 1 7.68-3.179c2.901 0 5.627 1.128 7.676 3.177 4.234 4.235 4.234 11.125 0 15.36l-21.07 21.073zm215.575 272.831H40.421c-10.539 0-19.525-6.759-22.862-16.168H29.58c.021 0 .041.003.062.003.021 0 .041-.003.062-.003h452.592c.021 0 .041.003.062.003s.041-.003.062-.003h12.021c-3.338 9.41-12.323 16.168-22.862 16.168zM46.136 137.101c-26.915-26.915-.38-63.362.762-64.9a8.084 8.084 0 0 0-12.946-9.686c-.368.491-9.06 12.199-13.458 28.323-6.096 22.354-1.183 42.304 14.209 57.697 26.916 26.914.381 63.363-.75 64.886a8.084 8.084 0 1 0 12.935 9.701c.368-.491 9.061-12.199 13.458-28.324 6.096-22.354 1.183-42.304-14.21-57.697zM132.367 104.759c-6.567-6.566-8.618-13.415-6.27-20.936 1.959-6.278 6.261-10.735 6.27-10.745a8.086 8.086 0 0 0-11.433-11.434c-.69.69-6.832 7.017-10.037 16.634-4.494 13.483-.929 26.948 10.037 37.915 6.576 6.574 8.624 13.474 6.264 21.094-1.945 6.28-6.181 10.776-6.328 10.931a8.085 8.085 0 0 0 11.534 11.33c.688-.697 6.811-7.084 10.007-16.755 4.484-13.566.917-27.074-10.044-38.034zM477.296 148.534c15.392-15.393 20.305-35.343 14.208-57.697-4.397-16.124-13.09-27.833-13.458-28.323-2.674-3.567-7.725-4.289-11.298-1.62-3.572 2.666-4.306 7.728-1.647 11.306 1.142 1.538 27.677 37.985.761 64.9-15.391 15.393-20.305 35.344-14.208 57.698 4.397 16.125 13.09 27.834 13.458 28.324a8.052 8.052 0 0 0 6.463 3.229 8.05 8.05 0 0 0 4.834-1.61c3.573-2.666 4.307-7.728 1.648-11.306-1.142-1.538-27.677-37.986-.761-64.901zM384.8 137.287c-2.361-7.62-.312-14.52 6.262-21.094 10.967-10.966 14.533-24.432 10.038-37.915-3.206-9.617-9.347-15.943-10.037-16.634-3.143-3.143-8.217-3.142-11.381-.016-3.162 3.124-3.19 8.234-.085 11.416.043.044 4.344 4.501 6.304 10.779 2.346 7.521.296 14.37-6.27 20.936-10.96 10.961-14.528 24.468-10.044 38.034 3.196 9.671 9.32 16.058 10.007 16.755a8.02 8.02 0 0 0 5.726 2.395 8.074 8.074 0 0 0 5.655-2.306c3.182-3.104 3.243-8.214.157-11.415-.043-.045-4.362-4.575-6.332-10.935z" transform="rotate(18.436 93.093 85.987) scale(.11742)"/></g><g id="g" fill="#7d7d7d"><path d="M261.39 168.768c19.439-20.182 28.627-44.058 25.867-67.229-1.263-10.604-7.755-34.217-15.79-57.423-4.032-11.646-7.924-21.604-11.254-28.793C254.974 4.01 251.488 0 246.899 0H119.287c-4.591 0-8.074 4.01-13.314 15.323-3.33 7.19-7.222 17.146-11.254 28.793-8.034 23.206-14.527 46.818-15.789 57.423-5.785 48.574 41.113 93.064 88.259 102.289.609 8.4 1.16 31.939.841 59.988-.514 45.139-2.784 61.541-4.021 64.074-1.849 3.256-12.858 7.672-29.624 9.439l-.467.049c-8.963.943-25.647 2.703-25.647 16.01 0 6.34 2.987 9.402 5.492 10.855 2.938 1.703 6.455 1.938 9.819 1.938.872 0 1.781-.016 2.719-.033a148.19 148.19 0 0 1 2.878-.035H237.01c.983 0 1.945.018 2.877.035.938.018 1.848.033 2.72.033 3.787 0 15.313 0 15.313-12.793 0-13.307-16.686-15.066-25.648-16.01l-.469-.049c-16.766-1.77-27.774-6.184-29.597-9.393-1.269-2.613-3.452-19.045-3.602-64.057-.095-28.908.736-52.332 1.501-60.404 22.166-4.836 44.832-17.627 61.285-34.707zm-73.789 93.996c.101 41.135 1.785 64.873 5.012 70.557 5.743 10.121 26.296 13.709 38.033 14.947l.472.049c4.729.5 15.802 1.666 15.802 5.072 0 .783-.09 1.211-.146 1.404-.375.152-1.402.389-4.167.389-.807 0-1.648-.016-2.517-.033-.996-.018-2.026-.037-3.08-.037H129.179c-1.054 0-2.084.02-3.081.037-.868.018-1.709.033-2.516.033-2.763 0-3.79-.236-4.165-.389-.058-.193-.146-.621-.146-1.406 0-3.406 11.072-4.572 15.801-5.07l.469-.049c11.738-1.238 32.289-4.826 38.035-14.949 1.193-2.102 4.823-8.498 5.47-70.788.152-14.737.076-30.267-.209-42.606-.472-20.396-1.172-21.842-1.789-23.117-.825-1.701-2.406-2.883-4.229-3.162-21.24-3.258-43.567-15.155-59.725-31.825-17.38-17.933-25.634-38.879-23.24-58.981 2.442-20.509 23.675-83.082 30.964-91.84h124.557c7.289 8.759 28.521 71.333 30.964 91.84 5.067 42.551-39.031 82.894-81.847 90.539-1.834.328-3.356 1.52-4.179 3.268-2.825 6.01-2.718 63.665-2.712 66.117z" transform="matrix(.14574 .04231 -.04231 .14574 289.033 188.633)"/><path d="M244.876 152.387c7.387-8.986 13.278-16.938 14.321-27.506.086-.874.229-4-2.657-4-36.54 0-110.438.014-146.979.014-3.159 0-2.665 3.056-2.574 3.986 1.056 10.84 7.114 19.048 14.765 28.241 12.812 15.393 29.63 25.398 48.34 26.765 3.171.232 8.396.375 13.635.375 4.988 0 9.529-.133 12.146-.356 19.111-1.63 36.178-11.918 49.003-27.519z" transform="matrix(.14574 .04231 -.04231 .14574 289.033 188.633)"/></g><g id="i" fill="#7d7d7d"><path d="M240.45 340.105c-4.141 0-7.5 3.36-7.5 7.5v12.45a7.5 7.5 0 0 0 7.5 7.5c4.144 0 7.5-3.356 7.5-7.5v-12.45a7.5 7.5 0 0 0-7.5-7.5zM145.629 340.105c-4.14 0-7.5 3.36-7.5 7.5v12.45a7.5 7.5 0 0 0 7.5 7.5c4.144 0 7.5-3.356 7.5-7.5v-12.45c.004-4.14-3.356-7.5-7.5-7.5zM208.55 350.414c-1.269-.836-6.882-2.996-10.386 2.149a6.185 6.185 0 0 1-5.125 2.765c-.992 0-3.484-.27-5.121-2.765-2.277-3.461-6.926-4.426-10.387-2.149a7.495 7.495 0 0 0-2.152 10.383 21.072 21.072 0 0 0 17.66 9.531c7.14 0 13.742-3.562 17.66-9.531a7.494 7.494 0 0 0-2.148-10.383zM158.55 271.973a7.5 7.5 0 1 0 7.027-13.254c-5.538-2.934-8.843-6.598-8.843-9.797 0-3.203 3.305-6.863 8.844-9.8 7.106-3.77 17.117-5.93 27.461-5.93 10.348 0 20.356 2.16 27.465 5.93 5.535 2.937 8.844 6.597 8.844 9.8 0 3.2-3.309 6.863-8.844 9.797-7.11 3.77-17.117 5.933-27.465 5.933a7.5 7.5 0 1 0 0 15c29.25 0 51.309-13.214 51.309-30.73 0-17.52-22.059-30.73-51.309-30.73s-51.309 13.21-51.309 30.73c0 9.113 5.973 17.297 16.82 23.05zm0 0" transform="rotate(-15.944 547.46 -865.242) scale(.10972)"/><path d="M482.367 158.809c-34.902-23.72-75.656-36.258-117.86-36.258-10.78 0-21.464.824-31.98 2.437l43.457-33.504a25.793 25.793 0 0 0 5.235-35.593 25.8 25.8 0 0 0-35.399-6.461l-25.61 17.062 17.68-25.187a25.79 25.79 0 0 0-5.593-35.54 25.794 25.794 0 0 0-35.715 4.36L169.52 166.867l-32.872 21.895c-21.507 6.226-40.503 23.117-46.312 30.851l-72.707 48.43c-9.004 5.996-15.031 15.16-16.973 25.8-1.941 10.645.461 21.344 6.766 30.134 6.305 8.793 16.36 16.128 32.008 16.492-.313 12.531 5.36 24.574 15.726 32.418 15.371 11.633 30.39 7.574 33.653 6.734 5.867 8.566 14.57 16.352 25.82 22.934 21.062 12.32 48.91 19.105 78.41 19.105s57.348-6.785 78.414-19.105c14.059-8.223 24.137-18.328 29.676-29.493 4.094 1.454 20.73 7.118 35.434-5.136 1.546-1.29 3.726-1.188 5.351 0 6.598 4.816 14.41 7.363 22.594 7.363 8.183 0 15.996-2.547 22.59-7.363 1.629-1.188 3.726-1.184 5.355 0 6.594 4.816 14.406 7.363 22.594 7.363 15.125 0 28.879-8.926 35.047-22.742.715-1.606 2.226-2.645 3.941-2.707a38.404 38.404 0 0 0 28.168-13.918 38.407 38.407 0 0 0 8.344-30.063c-.25-1.683.457-3.336 1.89-4.418 9.598-7.257 15.157-18.312 15.243-30.328.05-7.25-2.028-14.308-5.934-20.43 19.156-30.667 10.781-71.378-19.379-91.874zm-115.281-21.235c6.621 14.93 9.324 31.387 7.805 47.887-.536 5.805-5.692 10.086-11.496 9.559-.106-.012-10.352-1.415-9.551-11.598 1.261-15.977-2.309-31.469-10.11-44.766 6.868-.73 22.493-1.094 23.352-1.082zm-39.676 3.524c8.594 11.695 12.66 26.136 11.48 41.148-1.382 17.516 9.208 27.816 25.493 27.816 13.05 0 24.226-9.98 25.445-23.226 1.524-16.516-.629-33.008-6.21-48.348a193.727 193.727 0 0 1 32.46 5.989c4.832 12.753 5.184 26.96.922 40.398-5.313 16.746 6.215 29.203 16.25 32.227 18.11 5.464 28.77-5.497 32.324-16.215.824-2.48 1.567-5.008 2.211-7.516a7.5 7.5 0 1 0-14.531-3.727 100.76 100.76 0 0 1-1.914 6.52c-1.836 5.531-7.836 8.54-13.367 6.703-.098-.031-9.762-3.722-6.672-13.457 4.101-12.933 4.734-26.472 2.004-39.324a195.027 195.027 0 0 1 40.632 21.125c24.051 16.348 30.32 49.21 13.973 73.266-9.848 14.492-42.512 34.148-73.367 13.906-30.934-20.29-70.25-20.262-100.168.07a52.975 52.975 0 0 1-8.297 4.61v-14.141c0-8.621-2.469-16.945-7.191-24.684 13.488-2.933 22.285-16.14 19.683-29.773-3.054-16.02-9.535-31.067-18.914-44.137-.004 0 19.684-7.668 27.754-9.23zm-43.164 13.746c9.86 12.234 16.606 26.793 19.59 42.433 1.09 5.723-2.68 11.27-8.402 12.364-.106.02-10.34 1.507-12.387-8.5-2.774-13.567-9.121-26.102-18.168-36.168a195.126 195.126 0 0 1 19.367-10.13zm-32.074 18.5c6.148 6.328 10.894 14.043 13.875 22.511-7.79-4.003-16.344-7.32-25.477-9.875a52.384 52.384 0 0 1 11.602-12.636zM308.234 19.57a10.852 10.852 0 0 1 15.024-1.836 10.847 10.847 0 0 1 2.355 14.95l-39.828 56.738-74.289 49.484zm45.903 42.344a10.852 10.852 0 0 1 14.89 2.719 10.848 10.848 0 0 1-2.203 14.972l-70.402 54.278a209.771 209.771 0 0 0-49.774 24.922c-9.015 6.129-16.324 14.222-21.449 23.675-20.039-3.492-43.48-2.527-49.015-2.03zM122.199 211.746c18.805-10.996 43.961-17.05 70.84-17.05 26.879 0 52.035 6.054 70.84 17.05 17.539 10.258 27.195 23.461 27.195 37.172 0 13.715-9.66 26.918-27.195 37.176-18.805 10.996-43.961 17.05-70.84 17.05-26.879 0-52.035-6.054-70.84-17.05-17.535-10.258-27.195-23.461-27.195-37.176 0-13.711 9.66-26.914 27.195-37.172zM19.61 315.234c-10.433-16.023.75-30.988 6.336-34.707l54.297-36.172c-.152 1.512-.238 56.364-.238 56.364L54.52 320.367c-5.317 4.098-24.47 10.89-34.91-5.133zm35.149 22.204c3.144-1.317 25.246-17.778 25.246-17.778v32.774c0 4.507.68 8.933 2 13.238-22.332 1.23-29.297-13.582-27.246-28.235zm209.12 52.167c-18.804 10.997-43.96 17.055-70.839 17.055-26.879 0-52.035-6.058-70.84-17.055-17.535-10.257-27.195-23.46-27.195-37.171v-68.676c5.254 5.578 11.824 10.719 19.625 15.281 21.062 12.32 48.91 19.106 78.41 19.106s57.348-6.786 78.414-19.106c7.797-4.559 14.367-9.7 19.621-15.281v68.676c0 13.71-9.656 26.914-27.195 37.171zm219.513-100.128c-5.547 4.687-8.735 11.5-7.68 18.593a23.406 23.406 0 0 1-5.078 18.305 23.379 23.379 0 0 1-17.156 8.473c-7.473.28-14.016 4.718-17.082 11.586a23.402 23.402 0 0 1-21.348 13.855c-4.985 0-9.738-1.547-13.746-4.477a19.482 19.482 0 0 0-23.047 0 23.155 23.155 0 0 1-13.746 4.477c-4.985 0-9.738-1.547-13.746-4.477-6.895-5.03-15.989-4.8-23.047 0-9.625 6.547-19.45 3.954-22.094 2.942.297-2.086.453-79.621.453-79.621a67.721 67.721 0 0 0 16.73-8.274c24.884-16.914 57.665-16.886 83.509.067 12.8 8.398 25.316 11.176 36.273 11.176 28.742 0 41.773-12.883 48.656-19.055.957 2.543 6.168 14.578-7.851 26.43zm0 0" transform="rotate(-15.944 547.46 -865.242) scale(.10972)"/></g><g id="k" fill="#7d7d7d"><path d="M511.929 253.694c-.657-20.244-8.961-41.218-21.764-56.073 11.583-13.434 16.501-32.482 12.783-53.975-4.868-28.141-23.466-54.561-51.025-72.484-22.595-14.696-62.209-30.666-122.61-23.292-36.731 4.484-107.321 16.704-167.388 48.161-29.28 15.333-73.035 44.37-108.029 79.881-41.31 41.919-59.437 82.203-52.423 116.498 3.961 19.371 10.511 35.831 19.578 49.274-.368 30.415 10.693 59.555 29.853 78.363 17.655 17.33 41.857 26.056 70.204 25.318 6.004 3.78 20.468 11.814 41.496 16.664 9.662 2.228 21.51 3.934 35.144 3.934 21.384 0 47.154-4.195 75.754-17.153 6.9-.121 27.399-1.214 50.442-9.398 34.979-12.426 60.207-35.679 73.369-67.492 7.997-.102 21.312-1.09 35.638-5.623 29.814-9.436 50.125-29.656 58.889-58.569 13.826-14.622 20.764-33.246 20.089-54.034zM441.018 87.927c22.91 14.9 38.299 36.452 42.222 59.128 3.46 20.002-2.426 43.53-29.325 49.576-5.865 1.318-11.77 1.818-18.035 2.001 1.955-14.417-1.553-30.014-16.215-39.605-5.142-3.362-6.175-5.648-8.233-10.202-2.67-5.907-6.328-13.996-18.899-24.199-5.689-4.618-11.982-8.458-18.067-12.171-6.56-4.003-12.755-7.784-16.72-11.7-5.758-5.689-8.712-12.297-11.839-19.293-2.125-4.752-4.368-9.764-7.555-14.444 50.66-4.783 83.67 8.554 102.666 20.909zm-96.305 126.69c-.981-12.364-5.344-27.661-19.465-36.898-4.886-3.196-7.148-6.049-10.013-9.661-5.158-6.502-11.003-13.872-29.497-21.597-5.871-2.452-14.386-4.474-23.401-6.613-10.042-2.384-26.849-6.373-30.313-9.796-4.938-4.878-8.845-10.332-12.625-15.605-3.987-5.565-8.221-11.466-13.654-16.242 39.305-15.206 79.583-23.472 106.454-27.73 8.032 3.324 10.94 9.067 15.447 19.149 3.569 7.982 7.613 17.03 16.042 25.357 5.618 5.551 13.111 10.123 20.357 14.545 5.522 3.37 11.233 6.854 15.882 10.628 8.899 7.222 11.026 11.928 13.278 16.909 2.575 5.694 5.492 12.148 15.51 18.7 8.707 5.696 8.328 16.08 6.862 22.967-19.686.15-42.457 1.768-70.864 15.887zM68.141 189.95c5.409-5.489 11.041-10.813 16.796-15.949 6.505 1.311 14.329 6.239 23.798 14.987a9.965 9.965 0 0 0 6.783 2.654 9.976 9.976 0 0 0 7.348-3.214c3.748-4.057 3.497-10.384-.56-14.132-7.132-6.588-13.751-11.509-20.066-14.905 24.726-19.787 50.018-35.722 68.963-45.644a301.588 301.588 0 0 1 10.512-5.239c8.966.762 13.473 6.484 21.426 17.585 4.067 5.678 8.678 12.111 14.826 18.187 6.931 6.848 20.239 10.396 39.75 15.026 7.839 1.861 15.945 3.785 20.312 5.609 13.736 5.737 17.351 10.294 21.536 15.57 3.346 4.219 7.139 9.001 14.734 13.969 11.044 7.225 11.019 24.127 10.393 31.695-10.19 6.655-21.046 14.914-32.663 25.182-6.587 5.822-13.372 11.927-20.555 18.391-4.855 4.368-9.84 8.854-14.914 13.383-1.184-11.123-5.574-23.246-17.514-31.057-4.693-3.07-6.483-5.739-8.96-9.435-4.307-6.422-9.666-14.415-28.298-22.197-2.589-1.082-5.72-2.08-9.572-3.051-5.359-1.344-10.791 1.898-12.14 7.254-1.35 5.355 1.898 10.791 7.253 12.141 2.878.725 5.084 1.415 6.749 2.11 13.083 5.464 15.869 9.62 19.397 14.882 2.909 4.339 6.53 9.738 14.623 15.032 11.389 7.45 9.056 25.742 7.72 32.566-20.309 17.524-41.14 34.274-60.142 46.081-.004-18.038-6.155-34.523-23.491-39.168-1.916-.514-3.457-1.971-6.761-5.217-5.399-5.305-13.559-13.321-30.844-20.541-6.657-2.78-14.071-3.949-21.241-5.079-7.363-1.161-15.709-2.477-18.599-5.331-4.777-4.72-8.877-10.165-12.842-15.432-7.169-9.522-15.053-19.984-27.093-24.944 9.29-15.498 21.666-29.927 33.336-41.769zm-42.35 59.771c7.243 2.301 12.521 8.868 20.129 18.974 4.193 5.569 8.945 11.882 14.764 17.63 7.47 7.381 18.69 9.149 29.541 10.859 6.002.946 12.208 1.924 16.646 3.778 13.728 5.733 19.72 11.622 24.536 16.353 4.188 4.115 8.52 8.371 15.602 10.269 9.7 2.599 9.209 20.596 7.703 31.033-6.522 2.793-12.654 4.654-18.266 5.347-65.583 8.101-103.325-16.618-115.379-75.562-2.598-12.705-.372-25.852 4.724-38.681zm450.112 45.698a9.992 9.992 0 0 0-2.614 4.462c-6.478 23.549-21.885 39.417-45.793 47.161-18.777 6.081-36.01 4.765-36.159 4.752-4.563-.405-8.809 2.361-10.309 6.688-10.271 29.64-31.53 50.455-63.187 61.869-24.391 8.795-46.116 8.461-46.31 8.469a9.998 9.998 0 0 0-4.453.931c-33.823 15.739-67.143 20.114-99.033 13.005-23.888-5.326-38.048-15.474-38.159-15.554-1.861-1.374-4.146-2.078-6.451-1.939-24.379 1.257-44.071-5.303-58.523-19.489-10.458-10.266-17.893-24.574-21.469-40.582a92.558 92.558 0 0 0 7.489 4.98c17.049 10.161 38.079 15.269 62.738 15.269 8.028 0 16.441-.541 25.227-1.626 41.353-5.106 96.924-55.107 145.954-99.223 7.149-6.433 13.902-12.508 20.423-18.271 54.071-47.791 88.057-47.668 118.06-47.595 11.916.044 23.173.071 34.966-2.579 5.914-1.33 11.336-3.371 16.23-6.016 10.091 11.399 16.893 28.327 17.409 44.214.362 11.153-2.126 27.333-16.036 41.074z" transform="rotate(44.999 139.246 419.021) scale(.11828)"/><path d="M413.261 248.048h-.007c-5.523 0-9.997 4.478-9.997 10s4.481 10 10.004 10 10-4.478 10-10-4.477-10-10-10zM344.253 305.048h-.007c-5.523 0-9.997 4.478-9.997 10s4.481 10 10.004 10 10-4.478 10-10-4.477-10-10-10zM252.753 366.548h-.007c-5.523 0-9.997 4.478-9.997 10s4.481 10 10.004 10 10-4.478 10-10-4.477-10-10-10zM146.669 224.121c5.523 0 10-4.478 10-10s-4.477-10-10-10h-.007c-5.523 0-9.996 4.478-9.996 10s4.48 10 10.003 10z" transform="rotate(44.999 139.246 419.021) scale(.11828)"/></g><g id="m" fill="#7d7d7d"><path d="M128 224a10.66 10.66 0 0 0-10.667-10.667A10.66 10.66 0 0 0 106.666 224c0 28.01 30.896 66.469 34.417 70.771a10.69 10.69 0 0 0 15.02 1.479c4.552-3.74 5.208-10.458 1.479-15.021C146.146 267.292 128 239.437 128 224zM352 213.333A10.66 10.66 0 0 0 341.333 224c0 15.385-18.146 43.271-29.583 57.24-3.729 4.552-3.063 11.271 1.49 15.01a10.617 10.617 0 0 0 6.76 2.417 10.67 10.67 0 0 0 8.25-3.896c3.521-4.302 34.417-42.76 34.417-70.771A10.66 10.66 0 0 0 352 213.333zM234.667 213.333A10.66 10.66 0 0 0 224 224v64c0 5.896 4.771 10.667 10.667 10.667s10.667-4.771 10.667-10.667v-64a10.662 10.662 0 0 0-10.667-10.667z" transform="matrix(-.0866 -.0368 -.0368 .0866 97.92 198.301)"/><path d="M352 42.667c-6.464 0-13.219.855-20.234 2.158C308.273 17.439 273.496 0 234.667 0s-73.607 17.439-97.099 44.824c-7.016-1.302-13.771-2.158-20.234-2.158C52.635 42.667 0 95.302 0 160c0 44.333 25 84.635 64.25 104.562l-.208 161.198c-.01 11.635 4.51 22.573 12.729 30.802 8.229 8.24 19.156 12.771 30.792 12.771h254.25c24 0 43.521-19.521 43.521-43.521V264.406c39.104-19.979 64-60.219 64-104.406C469.333 95.302 416.698 42.667 352 42.667zm32 383.146c0 12.229-9.958 22.188-22.188 22.188h-254.25c-5.927 0-11.5-2.313-15.698-6.51-4.188-4.198-6.5-9.771-6.49-15.708L85.43 384H384v41.813zm6.604-178.011c-.563.229-1.094.5-1.594.823a10.464 10.464 0 0 0-3.271 3.208 10.527 10.527 0 0 0-1.625 4.281 10.312 10.312 0 0 0-.115 1.792v104.76H85.457l.137-104.615a10.69 10.69 0 0 0-4.959-9.261 11.165 11.165 0 0 0-1.677-.865c-35.01-15.31-57.625-49.79-57.625-87.925 0-52.938 43.063-96 96-96 2.069 0 4.253.25 6.396.419-10.792 18.756-17.063 40.43-17.063 63.581a10.66 10.66 0 0 0 10.667 10.667A10.66 10.66 0 0 0 128 128c0-58.813 47.854-106.667 106.667-106.667S341.333 69.187 341.333 128A10.66 10.66 0 0 0 352 138.667 10.66 10.66 0 0 0 362.667 128c0-23.151-6.271-44.824-17.063-63.581C347.747 64.25 349.931 64 352 64c52.938 0 96 43.063 96 96 0 38-22.521 72.437-57.396 87.802z" transform="matrix(-.0866 -.0368 -.0368 .0866 97.92 198.301)"/></g><g id="o" fill="#7d7d7d"><path d="M15.5 24h-7c-.827 0-1.5-.673-1.5-1.5v-12C7 9.673 7.673 9 8.5 9h7c.827 0 1.5.673 1.5 1.5v12c0 .827-.673 1.5-1.5 1.5zm-7-14a.5.5 0 0 0-.5.5v12a.5.5 0 0 0 .5.5h7a.5.5 0 0 0 .5-.5v-12a.5.5 0 0 0-.5-.5zM12 8c-1.654 0-3-1.346-3-3C9 3.487 11.343.521 11.61.188a.517.517 0 0 1 .78 0C12.657.521 15 3.487 15 5c0 1.654-1.346 3-3 3zm0-6.683C11.104 2.514 10 4.239 10 5c0 1.103.897 2 2 2s2-.897 2-2c0-.762-1.104-2.487-2-3.683z" transform="translate(216.339 168.664) scale(2.11137)"/><path d="M12 10a.5.5 0 0 1-.5-.5v-2a.5.5 0 0 1 1 0v2a.5.5 0 0 1-.5.5z" transform="translate(216.339 168.664) scale(2.11137)"/></g><g id="s" fill="#7d7d7d"><path d="M220.105 353.465c-25.308 0-45.898 20.59-45.898 45.894 0 25.309 20.59 45.899 45.898 45.899 25.305 0 45.895-20.59 45.895-45.899 0-25.304-20.59-45.894-45.895-45.894zm0 71.793c-14.28 0-25.898-11.617-25.898-25.899 0-14.277 11.617-25.894 25.898-25.894 14.278 0 25.895 11.617 25.895 25.894 0 14.282-11.617 25.899-25.895 25.899zM401.16 318.785c-19.242 0-34.898 15.652-34.898 34.895 0 19.242 15.656 34.894 34.898 34.894 19.242 0 34.895-15.652 34.895-34.894 0-19.243-15.653-34.895-34.895-34.895zm0 49.793c-8.215 0-14.898-6.683-14.898-14.898s6.683-14.895 14.898-14.895c8.211 0 14.895 6.684 14.895 14.895 0 8.215-6.684 14.898-14.895 14.898zM109.512 266.922c-18.063 0-32.754 14.695-32.754 32.758 0 18.058 14.691 32.754 32.754 32.754 18.058 0 32.754-14.696 32.754-32.754 0-18.063-14.696-32.758-32.754-32.758zm0 45.512c-7.035 0-12.754-5.723-12.754-12.754s5.719-12.754 12.754-12.754c7.035 0 12.754 5.722 12.754 12.754s-5.723 12.754-12.754 12.754zM383.5 125.258c18.29 0 33.168-14.88 33.168-33.168 0-18.29-14.879-33.168-33.168-33.168S350.332 73.8 350.332 92.09s14.879 33.168 33.168 33.168zm0-46.336c7.262 0 13.168 5.906 13.168 13.168s-5.906 13.168-13.168 13.168-13.168-5.906-13.168-13.168 5.906-13.168 13.168-13.168zm0 0" transform="matrix(.08341 -.03614 .03614 .08341 54.732 97.583)"/><path d="m511.434 212.531-1.051-7.449c-9.625-68.336-38.461-132.023-83.399-184.187C408.133-.988 376.34-6.391 351.391 8.055L215.543 86.703a10.005 10.005 0 0 0-4.879 10.156c1.254 8.246-1.398 16.348-7.281 22.23-9.332 9.333-24.14 10.169-34.438 1.946a9.996 9.996 0 0 0-11.25-.84L28.941 194.738C20.434 199.66 13.47 206.61 8.5 214.762a9.943 9.943 0 0 0-3.016 5.629A57.87 57.87 0 0 0 0 244.93v118.535c0 5.523 4.477 10 10 10 14.277 0 25.895 11.617 25.895 25.894 0 14.282-11.618 25.899-25.895 25.899-5.523 0-10 4.476-10 10v6c0 31.98 26.02 58 58 58h289.605c5.524 0 10-4.477 10-10 0-14.281 11.618-25.899 25.895-25.899s25.895 11.618 25.895 25.899c0 5.523 4.476 10 10 10H454c31.98 0 58-26.02 58-58V220.62c0-2.7-.191-5.418-.566-8.09zM454 479.258h-25.7c-4.577-20.516-22.929-35.899-44.8-35.899s-40.223 15.383-44.8 35.899H58c-19.984 0-36.418-15.508-37.89-35.125 20.456-4.617 35.788-22.938 35.788-44.774 0-21.87-15.382-40.222-35.898-44.796V244.93c0-4.453.805-8.801 2.281-12.88h68.055c5.52 0 10-4.476 10-10 0-5.523-4.48-10-10-10H38.953c0-.003.004-.003.008-.003l123.344-71.41c17.695 10.156 40.367 7.445 55.218-7.407 8.598-8.597 13.383-20.312 13.434-32.34L361.41 25.364c16.633-9.629 37.84-6.02 50.422 8.586 42.43 49.25 69.66 109.39 78.746 173.918l.59 4.184H270.387c4.129-11.64 15.242-20 28.281-20 5.523 0 10-4.477 10-10 0-5.524-4.477-10-10-10-24.148 0-44.348 17.203-48.996 40H177c-5.523 0-10 4.476-10 10 0 5.523 4.477 10 10 10h72.672c4.648 22.793 24.848 40 48.996 40 24.144 0 44.348-17.207 48.992-40H492v209.207c0 20.953-17.047 38-38 38zM326.945 232.05c-4.129 11.64-15.242 20-28.28 20-13.036 0-24.15-8.36-28.278-20zm0 0" transform="matrix(.08341 -.03614 .03614 .08341 54.732 97.583)"/><path d="M135 212.05a10.08 10.08 0 0 0-7.07 2.93 10.08 10.08 0 0 0-2.93 7.07c0 2.63 1.07 5.212 2.93 7.071 1.86 1.86 4.441 2.93 7.07 2.93s5.21-1.07 7.07-2.93a10.08 10.08 0 0 0 2.93-7.07c0-2.63-1.07-5.211-2.93-7.07a10.08 10.08 0 0 0-7.07-2.93zm0 0" transform="matrix(.08341 -.03614 .03614 .08341 54.732 97.583)"/></g><g id="y" fill="#7d7d7d"><path d="M288.273 116.102a32.843 32.843 0 0 1-.086-8.382 7.5 7.5 0 0 0-14.897-1.762 47.867 47.867 0 0 0 .125 12.213 7.5 7.5 0 0 0 12.729 4.273 7.488 7.488 0 0 0 2.129-6.342zM172.953 178.912a7.5 7.5 0 0 0-10.534-1.246 47.842 47.842 0 0 0-8.548 8.725 7.499 7.499 0 0 0 5.979 12.021 7.491 7.491 0 0 0 5.99-2.979 32.837 32.837 0 0 1 5.867-5.988 7.5 7.5 0 0 0 1.246-10.533zM159.283 214.98c0-1.406.091-2.82.271-4.206a7.5 7.5 0 0 0-6.475-8.401c-4.105-.536-7.87 2.367-8.402 6.475a47.869 47.869 0 0 0-.007 12.215 7.506 7.506 0 0 0 8.397 6.483 7.5 7.5 0 0 0 6.483-8.395 32.738 32.738 0 0 1-.267-4.171zM229.732 186.429a47.785 47.785 0 0 0-8.54-8.734 7.5 7.5 0 1 0-9.297 11.771 32.795 32.795 0 0 1 5.859 5.994 7.487 7.487 0 0 0 5.995 2.985 7.501 7.501 0 0 0 5.983-12.016zM238.901 208.896a7.504 7.504 0 0 0-8.396-6.483 7.5 7.5 0 0 0-6.483 8.395 32.737 32.737 0 0 1-.005 8.377 7.5 7.5 0 0 0 14.877 1.926 47.869 47.869 0 0 0 .007-12.215zM422.797 150.849h-30.001c-12.407 0-22.501 10.094-22.501 22.501 0 12.406 10.095 22.5 22.501 22.5 4.143 0 7.5-3.357 7.5-7.5s-3.357-7.5-7.5-7.5c-4.136 0-7.5-3.364-7.5-7.5s3.364-7.501 7.5-7.501h30.001c4.136 0 7.5 3.365 7.5 7.501s-3.364 7.5-7.5 7.5c-4.143 0-7.5 3.357-7.5 7.5s3.357 7.5 7.5 7.5c12.407 0 22.501-10.094 22.501-22.5 0-12.407-10.094-22.501-22.501-22.501z" transform="rotate(-24.229 762.891 -44.56) scale(.10792)"/><path d="M463.596 119.115c-1.201 0-15.946 4.354-24.001-5-19.824-21.897-58.79-17.619-73.383 8.521 0 .01 0 .01-.01.02-3.296 5.81-9.545 8.842-15.982 8.092l-73.749-73.746a7.503 7.503 0 0 0-10.608 0c-8.663 10.327-15.147 15.99-20.061 33.772l-.001.004c-12.184-3.897-25.241-2.906-36.072 2.694l-16.639-16.64c-8.772-8.771-23.048-8.771-31.822 0-4.956 4.956-7.108 11.667-6.464 18.151-17.081-.102-33.789 9.022-42.017 24.392-1.305 2.438-2.875 4.525-4.666 6.204a7.5 7.5 0 0 0 10.26 10.944c2.984-2.799 5.552-6.186 7.631-10.068 7.215-13.48 24.935-19.99 39.496-14.507 7.513 2.817 13.623-6.646 7.945-12.324l-1.577-1.576c-2.925-2.925-2.925-7.684-.001-10.607 2.925-2.924 7.683-2.924 10.608 0 22.925 22.924 23.393 22.35 23.393 26.517 0 6.732-8.136 9.953-12.785 5.304a7.5 7.5 0 0 0-10.608 10.605c4.237 4.238 9.888 6.572 15.911 6.572a22.425 22.425 0 0 0 22.482-22.481 22.54 22.54 0 0 0-1.597-8.345c7.355-2.871 16.07-2.89 23.926.14a77.38 77.38 0 0 0 43.403 75.54c-2.435 4.135-6.48 6.799-10.56 7.532l-.09.021a43.496 43.496 0 0 0-10.109 3.339c-9.759-31.641-39.26-54.705-74.062-54.705-34.024 0-62.975 22.045-73.375 52.594a7.45 7.45 0 0 0-2.113-4.24c-4.238-4.237-9.889-6.571-15.911-6.571-6.023 0-11.673 2.334-15.91 6.571l-21.216 21.214c-8.772 8.773-8.772 23.048.001 31.82 1.465 1.464 3.385 2.196 5.304 2.196s3.839-.732 5.304-2.196a7.5 7.5 0 0 0 0-10.607c-2.925-2.924-2.925-7.683-.002-10.606l21.216-21.214a7.445 7.445 0 0 1 5.303-2.178c2.015 0 3.898.773 5.303 2.179a7.502 7.502 0 0 0 10.607 0c.115-.115.218-.237.323-.358a77.376 77.376 0 0 0-2.34 18.897 76.918 76.918 0 0 0 4.962 27.213H53.722c-11.043-4.552-16.226-14.887-15.087-24.754.84-7.116-1.259-17.373-16.041-25.842-2.986-1.698-5.394-4.296-6.634-7.188-4.333-9.866 6.895-18.685 17.23-16.323 12.144 2.672 22.44.016 28.942-7.409 7.936-8.833 24.611-7.024 30.529 3.631a7.496 7.496 0 0 0 10.198 2.916 7.5 7.5 0 0 0 2.917-10.197c-10.879-19.595-39.914-22.942-54.864-6.304-3.584 4.091-9.861 3.734-14.447 2.725-11.255-2.561-23.218 1.457-30.464 10.231-11.299 13.684-5.742 32.472 9.158 40.945 9.258 5.304 8.748 9.634 8.578 11.075-1.149 9.952 1.772 20.174 7.876 28.065-7.362 2.223-13.896 6.738-18.722 13.115-7.151 9.446-9.405 21.408-6.186 32.82 13.221 46.862 48.939 87.723 100.78 115.436 1.099 13.813 7.2 26.62 17.346 36.289 10.67 10.169 24.63 15.769 39.308 15.769H341.47c14.677 0 28.637-5.6 39.308-15.769 10.143-9.667 16.245-22.47 17.345-36.276 51.768-27.67 87.463-68.47 100.729-115.269 3.256-11.486 1.008-23.52-6.167-33.012-7.051-9.326-17.758-14.675-29.375-14.675H315.334c5.572-19.292 23.236-32.997 44.028-32.997h.04c14.17 0 27.341 6.44 36.131 17.66a7.467 7.467 0 0 0 5.92 2.88c1.68 0 3.279-.55 4.609-1.59 3.261-2.55 3.841-7.271 1.29-10.53-11.14-14.267-28.533-23.42-47.951-23.42a60.81 60.81 0 0 0-40.952 15.85c-9.449 8.602-15.888 19.835-18.551 32.147h-45.379c-2.363-9.69.336-19.758 6.379-27.377 12.317-15.543 22.865-7.164 35.191-21.14 2.137-2.423 3.637-4.85 4.717-7.157 2.123-4.536 2.623-9.72 3.062-14.708 1.531-17.412 20.274-32.353 39.574-27.175 18.396 5.346 33.748-8.108 35.871-14.69 9.738-17.383 36.435-19.903 49.153-5.77 3.33 3.77 7.59 6.71 12.34 8.52 10.32 3.944 23.096 2.082 26.122 1.04 8.577-1.926 17.168.681 23.011 5.81 12.646 11.117 6.66 26.863-5.52 33.721l-.01.01c-13.28 7.582-23.392 18.731-21.401 33.76 1.597 14.339-4.686 17.43-2.16 23.21 2.68 6.083 11.433 5.944 13.861-.31 5.228-13.495 3.09-25.266 3.09-26.36.03-3.3 1.1-6 3.57-9.04 2.29-2.8 5.9-5.64 10.43-8.21l.01-.01c7.771-4.42 13.901-11.11 17.261-18.83 1.95-4.43 2.931-9 2.931-13.59-.002-22.926-24.495-40.29-48.405-34.782zm-271.81 33.364c29.807 0 54.785 20.979 60.996 48.942a48.692 48.692 0 0 0-3.646 4.084c-6.74 8.52-10.46 19.039-10.47 29.63 0 2.381.192 4.735.561 7.057h-8.704c3.748-8.091-7.398-14.8-12.791-7.666a32.804 32.804 0 0 1-5.867 5.988 7.507 7.507 0 0 0-1.563 1.678h-11.017v-.761c11.529-3.273 20.001-13.889 20.001-26.452 0-4.143-3.357-7.5-7.5-7.5s-7.5 3.357-7.5 7.5c0 6.893-5.608 12.5-12.5 12.5-6.893 0-12.501-5.607-12.501-12.5s5.608-12.5 12.501-12.5a7.5 7.5 0 0 0 7.362-6.081c.045.018.093.03.138.048v-21.467a7.5 7.5 0 0 0-15 0v13.548c-11.529 3.274-20.001 13.889-20.001 26.452 0 12.563 8.472 23.178 20.001 26.452v.761h-11.035a7.494 7.494 0 0 0-1.573-1.7 32.8 32.8 0 0 1-5.86-5.994c-5.401-7.164-16.579-.401-12.782 7.693h-17.49a62.018 62.018 0 0 1-6.263-27.213c0-34.461 28.038-62.499 62.503-62.499zm271.521 104.713c6.875 0 13.22 3.179 17.409 8.721 4.315 5.708 5.665 12.952 3.701 19.876-12.316 43.447-46.185 81.463-95.446 107.217h-244.17c-4.13 0-7.5 3.359-7.5 7.5 0 4.13 3.371 7.5 7.5 7.5h237.822c-3.569 19.315-20.909 34.187-41.156 34.187h-177.33c-22.264 0-41.018-17.979-41.806-40.082-.062-1.689.188-3.73-1.487-6.041-.606-.839-1.571-1.698-2.625-2.242-50.197-25.804-84.673-64.229-97.079-108.2-1.932-6.851-.581-14.028 3.709-19.695 4.204-5.554 10.563-8.739 17.448-8.739 20.879-.002 400.003-.002 421.01-.002zM303.335 141.637c-.966-4.38-3.892-4.055-8.658-10.243a7.5 7.5 0 0 0-10.52-1.362c-3.282 2.524-3.891 7.238-1.362 10.519a47.898 47.898 0 0 0 8.634 8.642 7.466 7.466 0 0 0 4.307 1.555c-2.911 4.548-5.035 9.512-6.158 15.16-33.657-19.079-41.508-63.352-18.307-92.891l25.154 25.153a27.335 27.335 0 0 0-3.485 13.408c0 7.346 2.861 14.252 8.054 19.446a7.5 7.5 0 1 0 10.608-10.607 12.416 12.416 0 0 1-3.661-8.839c0-.594.056-1.178.137-1.756l19.457 19.456c-8.607 1.594-16.871 5.595-24.2 12.359z" transform="rotate(-24.229 762.891 -44.56) scale(.10792)"/></g><g id="A" fill="#7d7d7d"><path d="M399.998 79.997h-40v-72A8 8 0 0 0 349.742.325l-272 80c-.16 0-.28.16-.44.216a8.089 8.089 0 0 0-1.176.592 8.021 8.021 0 0 0-1.36.92c-.31.288-.599.598-.864.928a8.396 8.396 0 0 0-.92 1.368 8.26 8.26 0 0 0-.48 1.16 7.506 7.506 0 0 0-.352 1.736c0 .264-.152.488-.152.752v384a8 8 0 0 0 8 8h320a8 8 0 0 0 8-8v-384a8 8 0 0 0-8-8zm-56-61.312v61.312H135.55l208.448-61.312zm48 445.312h-304v-368h304v368z" transform="matrix(.10255 -.03418 .03418 .10255 192.202 82.581)"/><path d="M183.996 127.999a8 8 0 0 0-6.854 3.878l-17.144 28.568-17.144-28.568a8 8 0 0 0-14.857 4.12v64a8 8 0 0 0 16 0v-35.12l9.144 15.24a8.312 8.312 0 0 0 13.712 0l9.144-15.24v35.12a8 8 0 0 0 16 0v-64a7.998 7.998 0 0 0-8.001-7.998zM231.998 175.997a8 8 0 0 0 0-16h-16v-16h16a8 8 0 0 0 0-16h-24a8 8 0 0 0-8 8v64a8 8 0 0 0 8 8h24a8 8 0 0 0 0-16h-16v-16h16zM287.998 127.997a8 8 0 0 0-8 8v30.112l-16.8-33.688a8 8 0 0 0-15.2 3.576v64a8 8 0 0 0 16 0v-30.112l16.8 33.688a8 8 0 0 0 15.2-3.576v-64a8 8 0 0 0-8-8zM343.998 127.997a8 8 0 0 0-8 8v48a8 8 0 0 1-16 0v-48a8 8 0 0 0-16 0v48c0 13.255 10.745 24 24 24s24-10.745 24-24v-48a8 8 0 0 0-8-8zM367.998 279.997h-256a8 8 0 0 0 0 16h256a8 8 0 0 0 0-16zM367.998 327.997h-256a8 8 0 0 0 0 16h256a8 8 0 0 0 0-16zM367.998 375.997h-256a8 8 0 0 0 0 16h256a8 8 0 0 0 0-16z" transform="matrix(.10255 -.03418 .03418 .10255 192.202 82.581)"/></g><g transform="rotate(-13.63 1396.278 -970.157) scale(.09742)" id="C" fill="#7d7d7d"><ellipse cx="185" cy="331" rx="9" ry="16" transform="rotate(-35.59 185.491 331.693)"/><ellipse cx="218" cy="248" rx="9" ry="16" transform="rotate(-35.59 218.503 248.799)"/><ellipse cx="299" cy="302" rx="9" ry="16" transform="rotate(-35.59 299.691 302.036)"/><ellipse cx="415" cy="178" rx="9" ry="16" transform="rotate(-35.59 415.328 178.88)"/><ellipse cx="390" cy="279" rx="9" ry="16" transform="rotate(-35.59 390.865 279.28)"/><ellipse cx="441" cy="363" rx="9" ry="16" transform="rotate(-35.59 441.706 363.956)"/><ellipse cx="330" cy="409" rx="9" ry="16" transform="rotate(-35.59 330.325 409.128)"/><ellipse cx="408" cy="451" rx="9" ry="16" transform="rotate(-35.59 408.542 451.011)"/><ellipse cx="227" cy="410" rx="9" ry="16" transform="rotate(-35.59 227.52 410.02)"/><ellipse cx="318" cy="191" rx="9" ry="16" transform="rotate(-35.59 318.64 191.725)"/><path d="M484.512 355.756a7.5 7.5 0 0 0-8.051 6.93c-2.453 32.895-9.062 64.258-19.647 93.207-8.982 24.574-32.635 41.086-58.84 41.086-1.692 0-3.415-.07-5.107-.21-105.484-8.582-202.537-76.334-203.498-77.015-.06-.05-.12-.09-.18-.13-25.525-16.933-44.961-42.138-54.755-70.957a7.51 7.51 0 0 0-9.523-4.696 7.51 7.51 0 0 0-4.696 9.523c10.835 31.924 32.344 59.822 60.573 78.587 1.953 1.372 26.236 18.265 63.757 36.43 35.428 17.143 89.703 38.563 147.101 43.229 2.103.17 4.226.26 6.329.26 32.494 0 61.805-20.478 72.94-50.95 11.065-30.251 17.965-62.976 20.528-97.243.299-4.135-2.795-7.74-6.931-8.051zM477.413 219.93c-16.583-63.487-72.559-110.081-134.434-112.774 6.369-12.036 9.683-24.493 11.245-35.869a7.495 7.495 0 0 0-6.419-8.462c-4.106-.571-7.891 2.303-8.462 6.409-2.033 14.77-6.739 27.568-14.089 38.393-15.071 1.492-29.54 5.788-42.789 12.707a94.836 94.836 0 0 0 1.292-8.241c.471-4.126-2.503-7.841-6.619-8.301a7.502 7.502 0 0 0-8.301 6.629c-.871 7.761-2.904 15.301-6.088 22.611l-40.796 29.2c-2.447-3.407-4.408-5.774-5.107-6.659-8.071-13.198-15.842-31.463-15.842-52.922 0-24.744 10.234-49.408 30.422-73.31 1.652-1.963 3.765-2.253 4.877-2.253 2.033 0 3.915.921 5.147 2.533 5.327 6.97 11.576 16.282 16.803 27.207 3.977 8.263 7.151 17.033 9.072 26.116a7.523 7.523 0 0 0 8.902 5.798c4.056-.861 6.649-4.847 5.798-8.912-1.632-7.671-3.995-14.97-6.799-21.79 10.234-15.621 26.757-30.632 52.802-42.448a6.316 6.316 0 0 1 2.614-.571c2.604 0 5.608 1.762 6.319 5.127a164.292 164.292 0 0 1 3.034 20.728 7.5 7.5 0 0 0 8.081 6.889 7.505 7.505 0 0 0 6.889-8.081 179.43 179.43 0 0 0-3.305-22.651C349.568 7.16 340.726 0 330.642 0c-3.044 0-6.018.641-8.822 1.913-25.114 11.386-42.388 25.515-54.084 40.525-4.747-8.622-9.843-16.042-14.35-21.94-4.106-5.357-10.324-8.432-17.083-8.432a21.36 21.36 0 0 0-16.352 7.58c-22.541 26.687-33.966 54.615-33.966 83.003 0 3.875.23 7.65.631 11.326L153.54 67.763c-2.413-3.375-7.11-4.146-10.484-1.742-3.365 2.423-4.146 7.11-1.732 10.484l32.434 45.312c-23.702-10.655-56.427-14.96-98.865 1.652a21.308 21.308 0 0 0-12.617 13.529 21.386 21.386 0 0 0 2.644 18.385c3.955 5.908 9.363 13.208 16.172 20.668-19.727 6.819-38.413 19.557-55.846 38.122a21.288 21.288 0 0 0-5.788 14.63c0 7.66 3.915 14.57 10.484 18.485a177.952 177.952 0 0 0 20.428 10.464c3.815 1.642 8.231-.11 9.873-3.915 1.642-3.815-.11-8.231-3.915-9.874a163.202 163.202 0 0 1-18.696-9.583c-1.983-1.172-3.154-3.254-3.154-5.578 0-1.142.29-2.824 1.722-4.346 17.874-19.036 37.031-31.213 57.148-36.38 16.32 14.27 35.337 24.306 56.587 27.017-10.984 10.363-19.775 22.718-26.093 36.484-13.245 3.607-26.931 3.529-40.458.907-4.076-.781-8.011 1.873-8.802 5.948s1.873 8.011 5.948 8.802c7.4 1.432 14.74 2.163 21.81 2.163h.01c5.217 0 10.304-.381 15.261-1.132-3.505 11.916-5.337 24.594-5.337 37.752 0 5.518.33 11.135.981 16.693a7.51 7.51 0 0 0 14.92-1.742 129.542 129.542 0 0 1-.881-14.95c0-16.946 3.514-32.853 9.111-45.648 13.138-30.661 36.317-44.126 36.992-44.915l.499-.349.018-.013.032-.023.026-.019.014-.01 103.243-73.898c65.337-46.782 163.228-3.268 185.654 82.583 9.663 37.001 14.59 73.841 14.64 109.52.01 4.146 3.375 7.5 7.51 7.5 4.137 0 7.52-3.353 7.51-7.52-.06-36.952-5.147-75.074-15.13-113.296zM168.42 200.544c-18.386 1.54-36.66-3.219-54.324-15.311-6.028-4.116-11.466-8.752-16.312-13.488-8.892-8.712-15.742-17.784-20.388-24.714a6.416 6.416 0 0 1-.781-5.538c.34-1.091 1.282-3.074 3.755-4.046 17.274-6.759 33.576-10.134 48.827-10.134 29.048 0 53.826 12.473 72.96 34.187l5.708 7.981c.441.641.881 1.272 1.322 1.883l-40.767 29.18z"/></g><g id="E" fill="#7d7d7d"><path d="M306 46c-11.05 0-20 8.95-20 20s8.95 20 20 20 20-8.95 20-20-8.95-20-20-20zM256 126c-5.52 0-10 4.48-10 10s4.48 10 10 10 10-4.48 10-10-4.48-10-10-10zM206 46c-11.05 0-20 8.95-20 20s8.95 20 20 20 20-8.95 20-20-8.95-20-20-20zM299.744 170.588l-5.78-11.56c-2.47-4.94-8.479-6.943-13.417-4.472-4.939 2.47-6.941 8.477-4.472 13.417l5.792 11.582c1.421 2.825 1.878 5.858 1.359 9l-7.53 45.14c-1.017 6.096 3.684 11.647 9.875 11.647 4.8 0 9.036-3.466 9.852-8.356l7.533-45.156c1.209-7.319.094-14.672-3.212-21.242z" transform="rotate(15.256 5.693 561.838) scale(.09448)"/><path d="M437.362 4.876c-4.175-1.26-8.905-2.688-10.335-3.52A9.999 9.999 0 0 0 412 10v40.089c-24.323 14.582-40 41.142-40 70.631 0 20.881 4.582 39.545 14.323 58.268-4.379 2.199-12.334 3.824-24.556-.223-3.369-1.114-12.776-3.464-19.39-5.078-2.814-16.755-9.47-24.878-19.544-46.38-9.739-19.478-27.548-33.697-48.454-39.01L265.7 53.575a9.998 9.998 0 0 0-19.401 0l-8.679 34.722c-20.906 5.313-38.715 19.532-48.454 39.01-10.116 21.592-16.73 29.619-19.544 46.38-6.614 1.614-16.023 3.965-19.396 5.08-12.215 4.046-20.171 2.42-24.55.22C135.422 160.248 140 141.592 140 120.72c0-28.674-14.986-55.635-40-70.631V10a10 10 0 0 0-15.028-8.645c-1.43.832-6.16 2.26-10.335 3.52C50.411 12.19 0 27.409 0 86.23v48.95c0 36.995 32.586 88.229 85.945 90.717 14.347 12.681 33.926 19.198 53.477 19.198 12.686 0 25.355-2.751 36.571-8.331l1.133 6.797a74.77 74.77 0 0 0 12.417 30.454A69.625 69.625 0 0 0 186 296c0 10.932 2.527 21.807 7.331 31.801A70.037 70.037 0 0 0 186 359c0 13.045 3.542 25.812 10.126 37.106C178.249 403.829 166 421.586 166 442c0 27.57 22.43 50 50 50l.232-.001C225.626 504.477 240.334 512 256 512s30.374-7.523 39.768-20.001L296 492c27.57 0 50-22.43 50-50 0-20.414-12.249-38.171-30.125-45.894C322.458 384.815 326 372.047 326 359a70.044 70.044 0 0 0-7.331-31.2c4.805-9.998 7.331-20.87 7.331-31.8a69.625 69.625 0 0 0-3.543-21.985 74.756 74.756 0 0 0 12.417-30.45l1.134-6.801c28.517 14.187 66.384 10.047 90.046-10.867C479.414 223.409 512 172.175 512 135.18V86.23c0-58.821-50.411-74.041-74.638-81.354zM84.483 205.765C44.939 202.354 20 162.792 20 135.18V86.23c0-43.697 37.357-55.244 60-62.082V116c0 5.523 4.478 10 10 10s10-4.477 10-10V74.955a62.369 62.369 0 0 1 20 45.766c0 40.442-19.821 60.501-35.517 85.044zm18.53 8.211c3.201-4.768 8.2-11.588 12.415-17.885 12.548 7.02 27.49 6.165 41.08 1.663 1.835-.606 6.998-1.944 12.539-3.325.399 3.572.611 4.137 3.441 21.322-20.125 13.258-50.092 12.236-69.475-1.775zM326 442c0 17.31-15.041 32.188-33.959 29.557a10.006 10.006 0 0 0-10.023 5.006C276.654 486.085 266.685 492 256 492s-20.654-5.915-26.018-15.438a10.004 10.004 0 0 0-10.023-5.006l-1.058.145C202.517 473.998 186 460.408 186 442c0-14.145 9.794-26.165 23.272-29.238C222.181 425.041 238.904 432 256 432c17.092 0 33.812-6.956 46.727-19.238C316.206 415.835 326 427.855 326 442zm-118.706-94.202C220.331 361.154 237.864 369 256 369c18.137 0 35.672-7.847 48.707-21.201A50.163 50.163 0 0 1 306 359c0 12.991-5.111 26.177-14.016 36.166C282.282 406.022 269.503 412 256 412s-26.282-5.979-35.976-16.824C211.111 385.177 206 371.991 206 359c0-3.789.455-7.544 1.294-11.202zM206 296c0-1.599.081-3.184.228-4.756C218.985 300.753 234.539 306 250.83 306h10.34c16.291 0 31.845-5.247 44.602-14.756.147 1.572.228 3.157.228 4.756 0 9.478-2.628 18.937-7.606 27.364C289.078 339.177 272.833 349 256 349s-33.078-9.823-42.399-25.646C208.628 314.937 206 305.478 206 296zm109.146-55.721a54.714 54.714 0 0 1-11.698 25.749C293.006 278.72 277.597 286 261.17 286h-10.34c-16.427 0-31.836-7.28-42.277-19.974a54.704 54.704 0 0 1-11.698-25.751c-8.205-49.205-8.716-49.536-8.147-57.812l.001-.017c1.12-16.766 8.427-24.573 18.346-46.194 7.873-15.746 22.945-26.798 40.318-29.566a9.999 9.999 0 0 0 8.128-7.451L256 97.24l.499 1.995a10 10 0 0 0 8.128 7.451c17.373 2.768 32.445 13.821 40.318 29.566 9.919 21.622 17.225 29.414 18.348 46.212.743 10.818-8.147 57.815-8.147 57.815zm24.366-24.528 2.893-17.347c.22-1.32.4-2.646.549-3.975 5.54 1.381 10.701 2.718 12.532 3.323 13.629 4.514 28.556 5.346 41.085-1.661 4.211 6.291 9.178 13.064 12.416 17.886-19.381 14.008-49.345 15.031-69.475 1.774zM492 135.18c0 27.612-24.938 67.174-64.483 70.584C412.897 182.904 392 161.891 392 120.72a62.375 62.375 0 0 1 20-45.766V116c0 5.523 4.478 10 10 10s10-4.477 10-10V24.148c22.643 6.838 60 18.385 60 62.082v48.95z" transform="rotate(15.256 5.693 561.838) scale(.09448)"/></g><g id="G" fill="#7d7d7d"><path d="M503.467 409.6H8.533A8.53 8.53 0 0 0 0 418.133C0 469.888 42.112 512 93.867 512h324.267C469.888 512 512 469.888 512 418.133a8.525 8.525 0 0 0-8.533-8.533zm-85.334 85.333H93.867c-39.467 0-72.073-29.918-76.331-68.267h476.919c-4.258 38.35-36.855 68.267-76.322 68.267zM256.009 281.6h-.111c-33.63 0-65.929 12.382-90.931 34.876l11.409 12.681c21.871-19.661 50.108-30.49 79.531-30.49h.094c47.292 0 87.723 24.695 103.006 62.899l15.855-6.332c-17.896-44.732-64.556-73.634-118.853-73.634z" transform="rotate(-19.853 498.631 -296.533) scale(.10572)"/><path d="M321.229 339.234c-43.537-35.951-108.203-29.781-144.162 13.739l13.158 10.863c29.961-36.267 83.857-41.421 120.124-11.452a85.902 85.902 0 0 1 15.471 16.725l13.978-9.805a103.352 103.352 0 0 0-18.569-20.07z" transform="rotate(-19.853 498.631 -296.533) scale(.10572)"/><path d="M303.778 369.374c-26.897-26.359-70.195-25.899-96.546.973l12.194 11.947c19.763-20.156 52.25-20.489 72.405-.742 9.771 9.566 15.369 22.895 15.369 36.582h17.067c0-18.245-7.467-36.02-20.489-48.76zM350.242 315.733h-8.908V332.8h8.567c48.444.188 89.813 37.632 93.867 86.042l16.998-1.417c-4.77-57.096-53.299-101.692-110.524-101.692z" transform="rotate(-19.853 498.631 -296.533) scale(.10572)"/><path d="M400.751 369.451c-15.292-13.67-35.004-20.591-55.475-19.43-20.48 1.135-39.287 10.189-52.966 25.472l12.715 11.383c10.641-11.887 25.267-18.935 41.199-19.823 16.017-.828 31.249 4.48 43.153 15.113a59.781 59.781 0 0 1 19.439 37.043l16.939-2.15a76.855 76.855 0 0 0-25.004-47.608z" transform="rotate(-19.853 498.631 -296.533) scale(.10572)"/><path d="M360.064 385.263c-22.793-5.854-46.071 7.97-51.917 30.754l16.538 4.233c3.499-13.67 17.476-21.956 31.147-18.449a25.575 25.575 0 0 1 18.449 18.449l16.538-4.233a42.67 42.67 0 0 0-30.755-30.754zM170.846 315.921c-29.534-2.406-58.24 6.81-80.828 25.984-22.596 19.174-36.369 46.003-38.784 75.529l17.007 1.399c2.039-24.994 13.696-47.693 32.811-63.906 19.123-16.222 43.409-24.047 68.403-21.982 13.867 1.126 27.554 5.436 39.586 12.442l8.593-14.754c-14.225-8.286-30.404-13.372-46.788-14.712z" transform="rotate(-19.853 498.631 -296.533) scale(.10572)"/><path d="M171.529 350.259c-41.975-5.188-80.444 24.798-85.615 66.833l16.939 2.082c4.019-32.691 33.886-55.927 66.586-51.985a59.654 59.654 0 0 1 51.977 51.985l16.956-2.082a76.693 76.693 0 0 0-66.843-66.833z" transform="rotate(-19.853 498.631 -296.533) scale(.10572)"/><path d="M172.919 385.476c-11.017-2.884-22.519-1.289-32.35 4.454-9.839 5.76-16.845 15.01-19.721 26.035l16.512 4.318c1.732-6.613 5.939-12.169 11.836-15.616 5.897-3.456 12.8-4.403 19.413-2.671a25.626 25.626 0 0 1 18.295 18.295l16.504-4.326c-3.899-14.915-15.581-26.598-30.489-30.489zM256 384c-18.825 0-34.133 15.309-34.133 34.133h17.067c0-9.412 7.654-17.067 17.067-17.067 9.412 0 17.067 7.654 17.067 17.067h17.067C290.133 399.309 274.825 384 256 384zM85 34h68v17H85zM102 68h51v17h-51zM66.543 183.501c-9.045-15.812-9.045-35.447 0-51.26 12.032-21.035 12.032-47.172 0-68.207-9.045-15.812-9.045-35.447 0-51.26a8.544 8.544 0 0 0-.026-8.525A8.544 8.544 0 0 0 59.136 0H34.133v17.067H46.08c-5.922 18.236-4.045 38.494 5.649 55.433 9.045 15.812 9.045 35.447 0 51.26-12.032 21.035-12.032 47.172 0 68.207 9.045 15.812 9.045 35.447 0 51.26-12.032 21.043-12.032 47.172-.35 67.524a131.712 131.712 0 0 1 6.571 17.553l16.367-4.821c-1.98-6.724-4.48-13.389-7.774-20.514-9.045-15.804-9.045-35.456 0-51.26 12.032-21.036 12.032-47.174 0-68.208z" transform="rotate(-19.853 498.631 -296.533) scale(.10572)"/><path d="M511.983 62.208c-.7-24.969-21.572-44.527-46.566-44.032l-248.653 7.313-13.014-13.013C195.695 4.429 184.986 0 173.611 0H94.464a8.532 8.532 0 0 0-7.407 4.292c-12.032 21.035-12.032 47.172 0 68.207 9.045 15.812 9.045 35.448 0 51.26-12.032 21.035-12.032 47.172 0 68.207 9.045 15.812 9.045 35.447 0 51.26-12.032 21.043-12.032 47.172 0 68.207a51.432 51.432 0 0 1 3.072 6.366l15.838-6.349a67.567 67.567 0 0 0-4.096-8.482c-9.045-15.804-9.045-35.456 0-51.26 12.032-21.035 12.032-47.172 0-68.207-9.045-15.812-9.045-35.447 0-51.26a67.976 67.976 0 0 0 5.649-12.774H173.602c11.383 0 22.093-4.437 30.148-12.484l12.911-12.911 247.381 14.541c.887.051 2.125.034 2.645.077 24.969 0 45.295-20.309 45.312-45.286l-.016-1.196zM466.68 91.622c-.657-.145-1.075-.017-1.621-.043L213.837 76.817c-2.432-.179-4.813.759-6.537 2.483l-15.616 15.616c-4.83 4.821-11.247 7.484-18.091 7.484h-62.831c.811-13.193-2.15-26.581-8.892-38.374-8.235-14.404-8.969-31.991-2.193-46.959h73.925c6.827 0 13.252 2.662 18.082 7.492L207.3 40.175c1.655 1.655 3.977 2.628 6.281 2.492l252.322-7.433c15.932-.435 28.578 11.887 29.03 28.16-.017 15.573-12.689 28.228-28.253 28.228z" transform="rotate(-19.853 498.631 -296.533) scale(.10572)"/><path d="M135.996 183.501c-9.045-15.812-9.045-35.447-.009-51.251a68.39 68.39 0 0 0 7.415-19.004l-16.648-3.763a51.503 51.503 0 0 1-5.572 14.285c-12.032 21.035-12.032 47.172 0 68.207 9.045 15.812 9.045 35.456-.009 51.277a68.924 68.924 0 0 0-2.33 63.693l15.403-7.33a51.825 51.825 0 0 1 1.749-47.906c12.033-21.036 12.033-47.173.001-68.208zM34 34h17v17H34zM34 68h25v17H34zM34 102h34v17H34z" transform="rotate(-19.853 498.631 -296.533) scale(.10572)"/></g><path d="M412.582 40.066c-1.09-8.32-5.352-15.718-12-20.832L384.02 6.5c-13.727-10.559-33.485-7.98-44.043 5.75l-12.739 16.563c-4.683 6.093-6.777 13.375-6.46 20.511l-36.934 43.07a98.77 98.77 0 0 1-20.504 18.075c-.313.18-.606.379-.887.597-10.531 6.813-22.433 11.72-35.324 14.477-18.91 4.043-35.82 14.723-47.625 30.07l-54.902 71.395H50.859c-10.238 0-18.57 8.332-18.57 18.574v22.367c-9.277 8.375-18.184 19.504-23.676 29.703-13.254 24.633-10.968 50.743 5.207 59.45 3.485 1.878 7.29 2.77 11.246 2.77 10.918 0 23-6.806 32.739-18.509l7.07 64.36a7.47 7.47 0 0 0 8.238 6.605 7.466 7.466 0 0 0 6.606-8.238l-9.45-85.988v-.004l-1.773-16.153h127.969a7.468 7.468 0 1 0 0-14.934H50.863a3.644 3.644 0 0 1-3.64-3.64v-37.789a3.644 3.644 0 0 1 3.64-3.64H161.731l136.214 93.203L280.79 491.3a6.566 6.566 0 0 1-6.512 5.773H95.81c-3.313 0-6.114-2.484-6.5-5.695L83.57 439.16a7.46 7.46 0 0 0-8.234-6.605 7.471 7.471 0 0 0-6.61 8.238l5.747 52.293c1.3 10.785 10.472 18.918 21.336 18.918h178.464c10.868 0 20.04-8.133 21.348-18.996l16.309-148.434a17.23 17.23 0 0 0 8.136 2.063c1.856 0 3.723-.301 5.547-.91 5.215-1.735 9.219-5.72 10.985-10.922l31.039-91.348c1.289-3.789.664-7.996-1.668-11.25a12.468 12.468 0 0 0-10.114-5.2h-32.851a82.322 82.322 0 0 0 2.812-25.57c-.648-13.167 1.036-25.925 4.918-37.847.141-.332.258-.676.352-1.028 2.922-8.656 6.992-16.867 12.203-24.449l32.129-46.738c7.23-1.574 13.613-5.598 18.176-11.531l12.738-16.563c5.117-6.652 7.332-14.898 6.25-23.215zM50.863 301.941h2.61l1.714 15.606c-.66 1.43-1.34 2.8-2.027 4.082-9.758 18.133-24.832 26.32-32.262 22.324-7.421-3.996-8.894-21.086.868-39.223 2.863-5.316 6.816-10.94 11.277-16.168 2.254 7.72 9.383 13.38 17.82 13.38zM310.86 191.06l-20.32 2.652a37.483 37.483 0 0 0-6.223-20.336l29.325-3.828a120.233 120.233 0 0 0-2.782 21.512zm-71.793 21.07c-4.804-3.7-7.886-9.047-8.671-15.059a22.56 22.56 0 0 1 4.515-16.78c4.465-5.81 11.211-8.856 18.024-8.856 4.832 0 9.699 1.53 13.816 4.695a22.56 22.56 0 0 1 8.672 15.059c.785 6.015-.817 11.976-4.516 16.78-7.629 9.927-21.914 11.79-31.84 4.16zm4.586-54.453-2.656-20.344a119.862 119.862 0 0 0 20.078-8.215l3.832 29.348a37.79 37.79 0 0 0-21.254-.79zm-52.312 7.039a66.792 66.792 0 0 1 35.09-23.621l3.078 23.562a37.449 37.449 0 0 0-6.434 6.528c-6.129 7.968-8.785 17.847-7.484 27.816 1.3 9.969 6.406 18.836 14.375 24.965a37.96 37.96 0 0 0 4.633 3.043h-91.16zM322.46 330a2.435 2.435 0 0 1-1.565 1.559 2.462 2.462 0 0 1-2.196-.309l-8.566-5.863c-.02-.012-.035-.024-.055-.035l-121.902-83.414h164.207zm-51.233-102.992a37.501 37.501 0 0 0 11.52-9.934 38.125 38.125 0 0 0 4.675-7.894l23.547-3.078a67.108 67.108 0 0 1-3.57 20.906zm59.757-97.36a114.132 114.132 0 0 0-12.656 24.223l-38.308 5.004-5-38.309a114.042 114.042 0 0 0 20.16-18.453l31.129-36.293a31.347 31.347 0 0 0 6.683 7.035l16.563 12.735a31.478 31.478 0 0 0 8.515 4.656zm63.512-75.472-12.738 16.562a16.362 16.362 0 0 1-10.926 6.293c-4.36.57-8.687-.594-12.176-3.277L342.094 61.02c-7.203-5.54-8.555-15.903-3.02-23.106l12.738-16.562c3.243-4.215 8.133-6.426 13.079-6.426a16.39 16.39 0 0 1 10.023 3.41l16.563 12.738A16.351 16.351 0 0 1 397.773 42a16.36 16.36 0 0 1-3.277 12.176zm0 0" transform="rotate(-6.588 2303.725 -1479.26) scale(.11572)" id="e" fill="#7d7d7d"/><path d="M277.8 134.4V6.8h-.4c0-4-3.2-6.8-6.8-6.8h-44.4c-4 0-6.8 3.2-6.8 6.8v128c-44 15.2-47.2 63.2-46 72.8V455.2c0 23.2 18.8 42 42 42h66.4c23.2 0 42-18.8 42-42v-248c1.2-9.6-2-57.6-46-72.8zM233 13.6h30.4v18.8H233V13.6zm48.4 469.6H215c-10.4 0-19.6-6-24.4-14.4h115.2c-4.8 8.4-14 14.4-24.4 14.4zm28-28.4H187v-51.6h122.4v51.6zm0-65.6H187V251.6h122.4v137.6zm0-183.6V238H187v-32c0-.4-1.6-48 40.8-59.2 3.2-.8 5.2-3.6 5.2-6.8V46.4h30.4V140c0 3.2 2 6 5.2 6.8 42.4 11.2 41.2 58.4 40.8 58.8z" transform="matrix(.10012 .06214 -.06214 .10012 6.553 116.66)" id="q" fill="#7d7d7d"/><path d="M481.854 290.398a7.5 7.5 0 0 0-10.571.868 7.5 7.5 0 0 0 .869 10.571c16.233 13.768 24.826 29.177 24.848 44.562.015 10.328-3.688 19.059-11.321 26.691-12.763 12.764-36.512 22.271-70.587 28.26-30.589 5.375-68.898 7.984-117.152 7.888-74.499-.101-127.053-6.548-159.935-19.656 12.666-9.012 26.217-19.829 40.749-32.523 4.399 5.263 10.706 8.741 17.776 9.455 14.684 1.483 27.898-9.388 29.315-24.158.947-9.877.968-19.823.075-29.623 13.165-13.134 25.04-25.532 35.714-37.292 6.012 10.29 10.152 21.135 12.322 32.354 1.853 9.561 2.31 19.459 1.357 29.421-1.408 14.76 9.373 27.974 24.091 29.461 14.648 1.48 27.757-9.308 29.19-24.179 1.456-15.099.752-30.21-2.092-44.915-3-15.488-8.397-30.441-16.066-44.617 14.402.45 28.489 1.621 42.087 3.485 12.521 15.866 20.243 33.143 22.938 51.398 1.422 9.635 1.434 19.541.033 29.444-2.075 14.683 8.104 28.369 22.698 30.511 14.48 2.125 28.211-8.03 30.301-22.815 2.127-15.05 2.1-30.176-.082-44.957a153.997 153.997 0 0 0-6.303-26.304c7.46 2.864 14.571 5.999 21.265 9.405 3.635 1.85 8.183.455 10.085-3.283a7.5 7.5 0 0 0-3.283-10.086c-41.217-20.976-98.196-32.537-156.761-31.991a415.447 415.447 0 0 0 11.28-15.298c21.967-31.336 32.646-57.016 32.646-78.506 0-14.776-5.14-27.395-15.276-37.503-21.208-21.151-57.113-24.484-101.098-9.387-42.189 14.48-87.391 44.362-127.278 84.14C35.9 238.851 0 306.522 0 357.824c0 21.275 6.477 38.98 18.732 51.201 10.165 10.137 22.665 15.204 37.403 15.203 15.602 0 33.712-5.678 54.213-17.031a255.73 255.73 0 0 0 12.944-7.704c34.203 16.529 91.414 24.633 174.627 24.745 47.564.064 89.006-2.708 119.769-8.114 37.693-6.624 63.402-17.231 78.597-32.427 10.448-10.448 15.735-23.004 15.714-37.319-.028-19.921-10.452-39.278-30.145-55.98zm-78.204-22.984c4.824 11.251 8.172 22.941 9.924 34.808 1.972 13.358 1.995 27.041.068 40.667-.922 6.522-6.852 11.015-13.278 10.072-6.447-.945-10.94-7.033-10.017-13.568 1.602-11.327 1.586-22.677-.047-33.735-2.369-16.049-8.09-31.372-17.032-45.754 10.533 2.074 20.692 4.581 30.382 7.51zm-192.736 73.51c-.585 6.121-5.589 10.733-11.651 10.733-3.712 0-7.078-1.702-9.302-4.584a972.65 972.65 0 0 0 21.606-20.255c.009 4.7-.202 9.411-.653 14.106zm100.862-40.492c2.57 13.291 3.206 26.959 1.888 40.632-.63 6.54-6.354 11.335-12.81 10.683-6.477-.654-11.235-6.534-10.608-13.104 1.089-11.392.563-22.729-1.562-33.699-2.79-14.423-8.38-28.262-16.628-41.222a645.642 645.642 0 0 0 9.079-10.653c3.929-.149 7.894-.258 11.88-.297 9.224 14.978 15.533 30.993 18.761 47.66zM189.648 127.258c11.358 4.544 21.982 10.439 31.602 17.584 10.839 8.052 20.53 17.71 28.804 28.708 3.698 4.916 3.111 11.695-1.365 15.769-5.142 4.679-13.363 3.835-17.579-1.77-6.877-9.142-14.914-17.156-23.887-23.82-13.017-9.668-27.889-16.457-44.37-20.304 8.913-5.977 17.87-11.383 26.795-16.167zM42.49 271.825c11.707 4.045 22.705 9.508 32.757 16.296 11.189 7.558 21.305 16.773 30.066 27.391 3.918 4.749 3.641 11.555-.648 15.831-4.917 4.903-13.162 4.427-17.623-.979-7.282-8.825-15.671-16.473-24.934-22.729-9.27-6.261-19.51-11.132-30.507-14.582 3.209-7 6.845-14.093 10.889-21.228zm60.592 122.25c-33.789 18.712-57.915 20.129-73.758 4.329C19.819 388.925 15 375.272 15 357.824c0-15.324 3.789-32.634 10.763-50.876 10.128 3.036 19.513 7.421 27.949 13.118 8.071 5.451 15.392 12.128 21.759 19.845 10.057 12.189 28.654 13.152 39.786 2.052 9.798-9.77 10.497-25.246 1.625-35.998-9.676-11.726-20.859-21.911-33.24-30.273-10.282-6.944-21.453-12.617-33.289-16.97 6.147-9.734 12.995-19.48 20.487-29.104 15.321.864 36.291 4.83 55.63 17.892 8.072 5.45 15.392 12.127 21.758 19.843 9.454 11.458 26.427 13.143 37.824 3.826 11.48-9.384 13.015-26.348 3.588-37.771a159.26 159.26 0 0 0-19.607-19.92 7.5 7.5 0 0 0-9.717 11.427 144.149 144.149 0 0 1 17.753 18.039c4.191 5.08 3.514 12.501-1.513 16.611-5.041 4.122-12.559 3.332-16.759-1.76-7.282-8.825-15.67-16.472-24.933-22.727-15.192-10.261-33.162-16.864-52.61-19.438a408.098 408.098 0 0 1 18.786-20.51c11.12 2.646 21.744 6.484 31.626 11.45 3.641 1.83 8.186.413 10.069-3.333a7.5 7.5 0 0 0-3.333-10.069c-8.224-4.133-16.907-7.543-25.921-10.23 10.497-9.857 21.298-18.994 32.252-27.301 20.066 2.368 37.735 9.124 52.545 20.123 7.819 5.808 14.832 12.805 20.845 20.797 9.501 12.629 28.064 14.4 39.66 3.847 10.237-9.316 11.637-24.741 3.257-35.881-9.138-12.147-19.853-22.823-31.847-31.732a154.062 154.062 0 0 0-23.054-14.141c6.287-2.803 12.53-5.275 18.699-7.393 16.632-5.709 31.774-8.547 44.976-8.547 17.186 0 31.08 4.812 40.661 14.367 7.313 7.293 10.868 16.086 10.868 26.882 0 18.05-10.069 41.566-29.929 69.896-9.926 14.159-22.393 30.697-35.218 44.044-44.688 46.505-98.817 105.542-154.114 136.166z" transform="matrix(.1078 .02695 -.02695 .1078 123.183 215.114)" id="u" fill="#7d7d7d"/><path d="M233.582 169.016c-4.71-14.625-17.113-24.196-34.59-27.02 4.79-8.73 8.067-22.047 3.801-36.855-7.2-24.996-31.113-25.32-44.113-25.43 5.488-10.566 10.879-27.254 7.062-43.867-2.625-11.426-11.097-26.39-36.55-32.785C113.995-.758 97.952-.188 89.741.492c-4.015.336-7.258 3.45-7.715 7.403-.46 4 1.922 7.671 5.801 8.93 5.899 1.905 13.352 5.964 15.328 14.445 2.403 10.312-1.02 24.859-49.234 46.003-16.32 7.157-26.309 17.266-29.68 30.043-3.972 15.043 2.305 29.848 8.5 39.856-5.148 1.433-11.012 3.879-16.273 7.578C6.089 162.05.566 172.27.5 184.305c-.082 14.98 4.902 24.972 10.813 31.554a13.11 13.11 0 0 0-1.481 6.051v9.723c0 17.781 12.082 32.789 28.465 37.262l10.687 39.847c0 .004.004.004.004.008L83.93 439.047c.004.004.004.008.004.016l15.75 58.722c2.28 8.5 9.73 14.215 18.53 14.215 8.806 0 16.255-5.715 18.532-14.219l61.387-228.886c16.387-4.473 28.469-19.48 28.469-37.262v-9.723a13.1 13.1 0 0 0-1.387-5.855c8.558-8.672 15.969-23.461 8.367-47.04zM122.258 493.898c-.75 2.797-3.074 3.098-4.04 3.098s-3.292-.3-4.042-3.098l-11.719-43.695a582.164 582.164 0 0 0 28.535 11.129zm25.273-94.246a588.402 588.402 0 0 1-6.625-2.496 7.505 7.505 0 0 0-9.695 4.309 7.498 7.498 0 0 0 4.309 9.695 516.449 516.449 0 0 0 8.113 3.04l-8.738 32.585A564.217 564.217 0 0 1 97.5 431.707l-11.414-42.562a520.076 520.076 0 0 0 16.332 7.968 7.498 7.498 0 0 0 9.969-3.633c1.75-3.757.125-8.222-3.633-9.968a502.436 502.436 0 0 1-27.969-14.133l-12.168-45.371c27.29 17.344 56.633 31.926 87.547 43.472zm12.531-46.726c-34.761-13.11-67.449-30.18-97.316-50.801L54.2 270.262h19.14c28.864 20.77 60.849 37.918 95.208 51.039zm12.391-46.2c-25.629-9.89-49.867-22.109-72.379-36.464h82.16zm38.402-98.027H84.391c-4.145 0-7.504 3.356-7.504 7.5s3.36 7.504 7.504 7.504h127.207v7.93c0 11.957-8.934 21.863-20.477 23.406-.004.004-.008 0-.012.004-.527.066-1.05.121-1.562.156-.016 0-.035.004-.05.004-.52.035-1.028.05-1.52.05H48.46c-.496 0-1.004-.015-1.523-.05-.016 0-.032-.004-.051-.004a24.476 24.476 0 0 1-1.559-.156c-.008-.004-.012 0-.016-.004-11.542-1.543-20.476-11.45-20.476-23.406v-7.93h24.406c4.145 0 7.504-3.36 7.504-7.504s-3.36-7.5-7.504-7.5H25.504c-6.695-5.347-10.059-13.515-10-24.312.094-17.106 19.445-23.032 26.21-23.758.317-.031.618-.098.927-.16 3.023 3.71 6.457 7.707 9.136 10.226a7.48 7.48 0 0 0 5.137 2.032c2 0 3.992-.793 5.469-2.364 2.836-3.023 2.691-7.77-.332-10.605-4.078-3.832-11.703-13.625-14.399-17.215-4.609-6.64-12-19.668-8.902-31.398 2.145-8.133 9.277-14.907 21.2-20.133 30.64-13.438 64.902-32.758 57.82-63.153-1.172-5.011-3.305-9.109-5.926-12.453 16.273 1.364 35.351 6.711 39.277 23.797 3.18 13.844-2.523 28.008-6.75 35.422-2.898 4.8-12.355 17.96-22.016 22.445a7.503 7.503 0 1 0 6.32 13.61c7.88-3.657 14.845-10.45 19.93-16.485.208.04.41.094.622.117 2.722.348 5.835.372 9.132.399 15.153.129 26.176 1.246 30.02 14.582 3.219 11.184.094 21.047-3.035 26.34-1.559 2.101-10.172 13.43-21.324 22.582a7.501 7.501 0 0 0-1.04 10.558 7.478 7.478 0 0 0 5.801 2.747c1.676 0 3.36-.56 4.754-1.704 5.582-4.582 10.535-9.562 14.485-13.914a10.87 10.87 0 0 0 1.992.27c10.93.406 24.883 3.762 29.293 17.445 5.078 15.766 2.316 27.266-8.45 35.082zm0 0" transform="rotate(-34.114 107.212 -352.281) scale(.11786)" id="w" fill="#7d7d7d"/></defs><g fi:class="KUsePattern"><pattern id="b" width="350" height="350" patternUnits="userSpaceOnUse"><use xlink:href="#a" x="-350" y="-350"/><use xlink:href="#a" y="-350"/><use xlink:href="#a" x="350" y="-350"/><use xlink:href="#a" x="-350"/><use xlink:href="#a"/><use xlink:href="#a" x="350"/><use xlink:href="#a" x="-350" y="350"/><use xlink:href="#a" y="350"/><use xlink:href="#a" x="350" y="350"/></pattern><rect width="100%" height="100%" fill="url(#b)"/></g><g fi:class="KUsePattern"><pattern id="d" width="350" height="350" patternUnits="userSpaceOnUse"><use xlink:href="#c" x="-350" y="-350"/><use xlink:href="#c" y="-350"/><use xlink:href="#c" x="350" y="-350"/><use xlink:href="#c" x="-350"/><use xlink:href="#c"/><use xlink:href="#c" x="350"/><use xlink:href="#c" x="-350" y="350"/><use xlink:href="#c" y="350"/><use xlink:href="#c" x="350" y="350"/></pattern><rect width="100%" height="100%" fill="url(#d)"/></g><g fi:class="KUsePattern"><pattern id="f" width="350" height="350" patternUnits="userSpaceOnUse"><use xlink:href="#e" x="-350" y="-350"/><use xlink:href="#e" y="-350"/><use xlink:href="#e" x="350" y="-350"/><use xlink:href="#e" x="-350"/><use xlink:href="#e"/><use xlink:href="#e" x="350"/><use xlink:href="#e" x="-350" y="350"/><use xlink:href="#e" y="350"/><use xlink:href="#e" x="350" y="350"/></pattern><rect width="100%" height="100%" fill="url(#f)"/></g><g fi:class="KUsePattern"><pattern id="h" width="350" height="350" patternUnits="userSpaceOnUse"><use xlink:href="#g" x="-350" y="-350"/><use xlink:href="#g" y="-350"/><use xlink:href="#g" x="350" y="-350"/><use xlink:href="#g" x="-350"/><use xlink:href="#g"/><use xlink:href="#g" x="350"/><use xlink:href="#g" x="-350" y="350"/><use xlink:href="#g" y="350"/><use xlink:href="#g" x="350" y="350"/></pattern><rect width="100%" height="100%" fill="url(#h)"/></g><g fi:class="KUsePattern"><pattern id="j" width="350" height="350" patternUnits="userSpaceOnUse"><use xlink:href="#i" x="-350" y="-350"/><use xlink:href="#i" y="-350"/><use xlink:href="#i" x="350" y="-350"/><use xlink:href="#i" x="-350"/><use xlink:href="#i"/><use xlink:href="#i" x="350"/><use xlink:href="#i" x="-350" y="350"/><use xlink:href="#i" y="350"/><use xlink:href="#i" x="350" y="350"/></pattern><rect width="100%" height="100%" fill="url(#j)"/></g><g fi:class="KUsePattern"><pattern id="l" width="350" height="350" patternUnits="userSpaceOnUse"><use xlink:href="#k" x="-350" y="-350"/><use xlink:href="#k" y="-350"/><use xlink:href="#k" x="350" y="-350"/><use xlink:href="#k" x="-350"/><use xlink:href="#k"/><use xlink:href="#k" x="350"/><use xlink:href="#k" x="-350" y="350"/><use xlink:href="#k" y="350"/><use xlink:href="#k" x="350" y="350"/></pattern><rect width="100%" height="100%" fill="url(#l)"/></g><g fi:class="KUsePattern"><pattern id="n" width="350" height="350" patternUnits="userSpaceOnUse"><use xlink:href="#m" x="-350" y="-350"/><use xlink:href="#m" y="-350"/><use xlink:href="#m" x="350" y="-350"/><use xlink:href="#m" x="-350"/><use xlink:href="#m"/><use xlink:href="#m" x="350"/><use xlink:href="#m" x="-350" y="350"/><use xlink:href="#m" y="350"/><use xlink:href="#m" x="350" y="350"/></pattern><rect width="100%" height="100%" fill="url(#n)"/></g><g fi:class="KUsePattern"><pattern id="p" width="350" height="350" patternUnits="userSpaceOnUse"><use xlink:href="#o" x="-350" y="-350"/><use xlink:href="#o" y="-350"/><use xlink:href="#o" x="350" y="-350"/><use xlink:href="#o" x="-350"/><use xlink:href="#o"/><use xlink:href="#o" x="350"/><use xlink:href="#o" x="-350" y="350"/><use xlink:href="#o" y="350"/><use xlink:href="#o" x="350" y="350"/></pattern><rect width="100%" height="100%" fill="url(#p)"/></g><g fi:class="KUsePattern"><pattern id="r" width="350" height="350" patternUnits="userSpaceOnUse"><use xlink:href="#q" x="-350" y="-350"/><use xlink:href="#q" y="-350"/><use xlink:href="#q" x="350" y="-350"/><use xlink:href="#q" x="-350"/><use xlink:href="#q"/><use xlink:href="#q" x="350"/><use xlink:href="#q" x="-350" y="350"/><use xlink:href="#q" y="350"/><use xlink:href="#q" x="350" y="350"/></pattern><rect width="100%" height="100%" fill="url(#r)"/></g><g fi:class="KUsePattern"><pattern id="t" width="350" height="350" patternUnits="userSpaceOnUse"><use xlink:href="#s" x="-350" y="-350"/><use xlink:href="#s" y="-350"/><use xlink:href="#s" x="350" y="-350"/><use xlink:href="#s" x="-350"/><use xlink:href="#s"/><use xlink:href="#s" x="350"/><use xlink:href="#s" x="-350" y="350"/><use xlink:href="#s" y="350"/><use xlink:href="#s" x="350" y="350"/></pattern><rect width="100%" height="100%" fill="url(#t)"/></g><g fi:class="KUsePattern"><pattern id="v" width="350" height="350" patternUnits="userSpaceOnUse"><use xlink:href="#u" x="-350" y="-350"/><use xlink:href="#u" y="-350"/><use xlink:href="#u" x="350" y="-350"/><use xlink:href="#u" x="-350"/><use xlink:href="#u"/><use xlink:href="#u" x="350"/><use xlink:href="#u" x="-350" y="350"/><use xlink:href="#u" y="350"/><use xlink:href="#u" x="350" y="350"/></pattern><rect width="100%" height="100%" fill="url(#v)"/></g><g fi:class="KUsePattern"><pattern id="x" width="350" height="350" patternUnits="userSpaceOnUse"><use xlink:href="#w" x="-350" y="-350"/><use xlink:href="#w" y="-350"/><use xlink:href="#w" x="350" y="-350"/><use xlink:href="#w" x="-350"/><use xlink:href="#w"/><use xlink:href="#w" x="350"/><use xlink:href="#w" x="-350" y="350"/><use xlink:href="#w" y="350"/><use xlink:href="#w" x="350" y="350"/></pattern><rect width="100%" height="100%" fill="url(#x)"/></g><g fi:class="KUsePattern"><pattern id="z" width="350" height="350" patternUnits="userSpaceOnUse"><use xlink:href="#y" x="-350" y="-350"/><use xlink:href="#y" y="-350"/><use xlink:href="#y" x="350" y="-350"/><use xlink:href="#y" x="-350"/><use xlink:href="#y"/><use xlink:href="#y" x="350"/><use xlink:href="#y" x="-350" y="350"/><use xlink:href="#y" y="350"/><use xlink:href="#y" x="350" y="350"/></pattern><rect width="100%" height="100%" fill="url(#z)"/></g><g fi:class="KUsePattern"><pattern id="B" width="350" height="350" patternUnits="userSpaceOnUse"><use xlink:href="#A" x="-350" y="-350"/><use xlink:href="#A" y="-350"/><use xlink:href="#A" x="350" y="-350"/><use xlink:href="#A" x="-350"/><use xlink:href="#A"/><use xlink:href="#A" x="350"/><use xlink:href="#A" x="-350" y="350"/><use xlink:href="#A" y="350"/><use xlink:href="#A" x="350" y="350"/></pattern><rect width="100%" height="100%" fill="url(#B)"/></g><g fi:class="KUsePattern"><pattern id="D" width="350" height="350" patternUnits="userSpaceOnUse"><use xlink:href="#C" x="-350" y="-350"/><use xlink:href="#C" y="-350"/><use xlink:href="#C" x="350" y="-350"/><use xlink:href="#C" x="-350"/><use xlink:href="#C"/><use xlink:href="#C" x="350"/><use xlink:href="#C" x="-350" y="350"/><use xlink:href="#C" y="350"/><use xlink:href="#C" x="350" y="350"/></pattern><rect width="100%" height="100%" fill="url(#D)"/></g><g fi:class="KUsePattern"><pattern id="F" width="350" height="350" patternUnits="userSpaceOnUse"><use xlink:href="#E" x="-350" y="-350"/><use xlink:href="#E" y="-350"/><use xlink:href="#E" x="350" y="-350"/><use xlink:href="#E" x="-350"/><use xlink:href="#E"/><use xlink:href="#E" x="350"/><use xlink:href="#E" x="-350" y="350"/><use xlink:href="#E" y="350"/><use xlink:href="#E" x="350" y="350"/></pattern><rect width="100%" height="100%" fill="url(#F)"/></g><g fi:class="KUsePattern"><pattern id="H" width="350" height="350" patternUnits="userSpaceOnUse"><use xlink:href="#G" x="-350" y="-350"/><use xlink:href="#G" y="-350"/><use xlink:href="#G" x="350" y="-350"/><use xlink:href="#G" x="-350"/><use xlink:href="#G"/><use xlink:href="#G" x="350"/><use xlink:href="#G" x="-350" y="350"/><use xlink:href="#G" y="350"/><use xlink:href="#G" x="350" y="350"/></pattern><rect width="100%" height="100%" fill="url(#H)"/></g></svg>