<svg class="heart" viewBox="0 0 512 512" xml:space="preserve" xmlns="http://www.w3.org/2000/svg">
<style>
  .empty .inside {
    fill: hsl(0, 0%, 100%);
  }

  .empty .outside {
    fill: hsl(0, 0%, 6%);
  }
  
  .empty{
    opacity: 1;
    transition: opacity 0.7s ease;
  }

  .full {
    fill: url(#Gradient);
  }
  
  svg:hover .empty {
    opacity: 0;
  }
</style>
<linearGradient id="Gradient" x1="0" x2="0" y1="0" y2="1">
        <stop offset="0%" stop-color="hsl(317, 100%, 74%)"/>
        <stop offset="100%" stop-color="hsl(267, 66%, 60%)"/>
</linearGradient>
<g class="full">
<path class="inside" d="m256 474.51 201.96-201.96c26.556-26.556 41.182-61.909 41.182-99.558s-14.626-73.003-41.182-99.558c-26.59-26.598-61.943-41.242-99.558-41.242-33.493 0-66.21 12.442-92.433 35.337l-9.967 9.327-10.291-9.617c-25.899-22.607-58.607-35.048-92.109-35.048-37.615 0-72.969 14.643-99.558 41.242-26.556 26.556-41.182 61.909-41.182 99.558s14.626 73.011 41.181 99.558l201.96 201.96z"/>
<path class="outside" d="M256 492.61 467.01 281.6c59.99-59.989 59.99-157.24 0-217.22-29.995-29.995-69.299-44.988-108.61-44.988-36.779 0-73.259 13.662-102.4 39.919-29.15-26.257-65.621-39.919-102.4-39.919-39.313 0-78.618 14.993-108.61 44.988-59.981 59.981-59.981 157.24 0 217.22L256 492.61zM63.09 82.47c24.175-24.175 56.32-37.487 90.513-37.487 31.206 0 60.399 11.563 83.695 31.889l18.705 17.493 18.714-17.493c23.296-20.318 52.489-31.889 83.686-31.889 34.193 0 66.33 13.312 90.513 37.487 49.911 49.903 49.903 131.12 0 181.02L256.006 456.4 63.096 263.5c-49.903-49.912-49.903-131.12 0-181.03z"/>
</g>

<g class="empty">
<path class="inside" d="m256 474.51 201.96-201.96c26.556-26.556 41.182-61.909 41.182-99.558s-14.626-73.003-41.182-99.558c-26.59-26.598-61.943-41.242-99.558-41.242-33.493 0-66.21 12.442-92.433 35.337l-9.967 9.327-10.291-9.617c-25.899-22.607-58.607-35.048-92.109-35.048-37.615 0-72.969 14.643-99.558 41.242-26.556 26.556-41.182 61.909-41.182 99.558s14.626 73.011 41.181 99.558l201.96 201.96z"/>
<path class="outside" d="M256 492.61 467.01 281.6c59.99-59.989 59.99-157.24 0-217.22-29.995-29.995-69.299-44.988-108.61-44.988-36.779 0-73.259 13.662-102.4 39.919-29.15-26.257-65.621-39.919-102.4-39.919-39.313 0-78.618 14.993-108.61 44.988-59.981 59.981-59.981 157.24 0 217.22L256 492.61zM63.09 82.47c24.175-24.175 56.32-37.487 90.513-37.487 31.206 0 60.399 11.563 83.695 31.889l18.705 17.493 18.714-17.493c23.296-20.318 52.489-31.889 83.686-31.889 34.193 0 66.33 13.312 90.513 37.487 49.911 49.903 49.903 131.12 0 181.02L256.006 456.4 63.096 263.5c-49.903-49.912-49.903-131.12 0-181.03z"/>
</g>

</svg>