<svg width="512" height="512" viewBox="0 0 512 512" fill="none" xmlns="http://www.w3.org/2000/svg" xmlns:xlink="http://www.w3.org/1999/xlink">
<!-- <rect width="512" height="512" fill="#E5E5E5"/> -->
  <g id="salad">
    <g id="egg2">
      <path id="egg2_1" d="M150.619 269.765C127.127 246.394 127.127 208.363 150.619 184.991C155.966 179.669 164.636 179.669 169.984 184.991L235.829 250.496C241.177 255.819 241.176 264.446 235.829 269.765C212.337 293.138 174.111 293.139 150.619 269.765V269.765Z"/>
      <path id="egg2_2" d="M180.637 200.404C169.672 211.314 169.674 228.995 180.637 239.902C191.598 250.809 209.374 250.809 220.336 239.902C221.141 239.092 221.895 238.234 222.595 237.331L183.219 198.158C182.314 198.854 181.451 199.604 180.637 200.404V200.404Z"/>
    </g>
    <path id="salad3" d="M178.995 257.111C171.616 249.693 159.419 248.633 146.026 252.937C150.311 239.475 149.255 227.215 141.874 219.793C133.575 211.453 119.182 211.149 103.848 217.482C89.7281 207.622 70.1911 209.009 57.6051 221.66C45.0181 234.312 43.6401 253.952 53.4471 268.148C47.1471 283.562 47.4471 298.031 55.7471 306.375C63.1271 313.794 75.3251 314.854 88.7181 310.548C84.4361 324.012 85.4901 336.274 92.8701 343.692C100.25 351.112 112.447 352.171 125.841 347.866C121.557 361.33 122.613 373.59 129.996 381.011C143.732 394.819 174.147 386.634 197.929 362.723C221.713 338.815 229.858 308.239 216.121 294.434C208.741 287.013 196.544 285.951 183.15 290.258C187.433 276.792 186.376 264.532 178.995 257.111V257.111Z"/>
    <path id="tomato2" d="M193.497 309.67C180.008 335.908 147.746 346.174 121.577 332.549C115.621 329.447 113.281 322.091 116.351 316.118L154.152 242.572C154.879 241.153 155.88 239.892 157.097 238.862C158.314 237.831 159.723 237.052 161.242 236.569C162.762 236.085 164.362 235.907 165.95 236.045C167.539 236.183 169.084 236.634 170.498 237.372C196.667 250.996 206.985 283.43 193.497 309.67V309.67Z"/>
    <path id="red_circle1" d="M370.812 276.34C390.943 276.34 407.263 260.104 407.263 240.076C407.263 220.048 390.943 203.812 370.812 203.812C350.681 203.812 334.361 220.048 334.361 240.076C334.361 260.104 350.681 276.34 370.812 276.34Z"/>
    <path id="salad2" d="M449.934 363.249C457.195 356.026 458.234 344.087 454.021 330.976C467.197 335.171 479.197 334.136 486.458 326.912C494.624 318.789 494.92 304.702 488.722 289.692C498.37 275.871 497.014 256.747 484.632 244.428C472.25 232.111 453.028 230.761 439.136 240.359C424.048 234.193 409.889 234.488 401.724 242.61C394.462 249.834 393.423 261.773 397.638 274.884C384.46 270.691 372.46 271.724 365.199 278.948C357.938 286.172 356.899 298.111 361.113 311.221C347.937 307.028 335.937 308.062 328.675 315.287C315.16 328.733 323.173 358.503 346.572 381.782C369.97 405.059 399.895 413.034 413.409 399.588C420.671 392.364 421.709 380.426 417.494 367.315C430.672 371.507 442.672 370.473 449.934 363.249Z"/>
    <path id="orange_circle4" d="M114.781 364.884C134.912 364.884 151.232 348.648 151.232 328.62C151.232 308.592 134.912 292.356 114.781 292.356C94.6497 292.356 78.33 308.592 78.33 328.62C78.33 348.648 94.6497 364.884 114.781 364.884Z"/>
    <path id="salad1" d="M340.59 243.262C332.786 235.496 319.885 234.387 305.722 238.892C310.254 224.801 309.138 211.967 301.33 204.203C292.554 195.472 277.335 195.154 261.117 201.783C246.184 191.464 225.524 192.915 212.214 206.158C198.904 219.398 197.448 239.955 207.818 254.812C201.156 270.946 201.473 286.088 210.251 294.82C218.056 302.585 230.955 303.694 245.118 299.188C240.588 313.279 241.704 326.114 249.509 333.878C257.314 341.643 270.214 342.753 284.378 338.247C279.847 352.34 280.963 365.174 288.77 372.937C303.295 387.39 335.461 378.821 360.611 353.801C385.762 328.776 394.376 296.775 379.85 282.325C372.045 274.558 359.146 273.449 344.982 277.955C349.512 263.859 348.394 251.027 340.59 243.262V243.262Z"/>
    <path id="tomato1" d="M215.435 128.027C194.518 148.835 160.487 148.835 139.571 128.026C134.81 123.289 134.81 115.609 139.571 110.875L198.192 52.5531C202.955 47.8151 210.673 47.8161 215.434 52.5531C236.349 73.3611 236.351 107.218 215.435 128.027Z"/>
    <path id="orange_circle3" d="M200.73 354.196C214.94 354.196 226.46 342.735 226.46 328.598C226.46 314.461 214.94 303 200.73 303C186.52 303 175 314.461 175 328.598C175 342.735 186.52 354.196 200.73 354.196Z"/>
    <path id="red_cube3" d="M404.54 43.061C405.387 43.9019 406.059 44.9019 406.517 46.0036C406.976 47.1053 407.212 48.2867 407.212 49.48C407.212 50.6733 406.976 51.8547 406.517 52.9564C406.059 54.0581 405.387 55.0581 404.54 55.899L389.057 71.303C385.494 74.847 379.718 74.846 376.154 71.303L360.672 55.899C359.825 55.0582 359.153 54.0581 358.695 52.9565C358.236 51.8548 358 50.6733 358 49.48C358 48.2867 358.236 47.1052 358.695 46.0035C359.153 44.9019 359.825 43.9018 360.672 43.061L376.154 27.658C379.718 24.114 385.494 24.114 389.057 27.658L404.54 43.061V43.061Z"/>
    <path id="green_cube" d="M306.614 129.595C307.299 130.275 307.842 131.083 308.213 131.973C308.583 132.864 308.774 133.819 308.774 134.783C308.774 135.748 308.583 136.703 308.213 137.593C307.842 138.484 307.299 139.292 306.614 139.971L294.1 152.421C291.221 155.286 286.553 155.284 283.673 152.421L271.16 139.971C270.476 139.292 269.932 138.484 269.562 137.593C269.191 136.703 269 135.748 269 134.783C269 133.819 269.191 132.864 269.562 131.973C269.932 131.083 270.476 130.275 271.16 129.595L283.674 117.148C286.554 114.283 291.222 114.284 294.101 117.148L306.614 129.595Z"/>
    <path id="red_cube2" d="M91.3836 326.658C92.4459 327.713 93.2891 328.967 93.8644 330.349C94.4398 331.731 94.736 333.213 94.736 334.71C94.736 336.207 94.4398 337.689 93.8644 339.071C93.2891 340.453 92.4459 341.708 91.3836 342.762L71.9606 362.084C67.4906 366.531 60.2446 366.529 55.7756 362.084L36.3516 342.762C35.2895 341.707 34.4466 340.453 33.8714 339.071C33.2961 337.689 33 336.207 33 334.71C33 333.213 33.2961 331.731 33.8714 330.349C34.4466 328.967 35.2895 327.713 36.3516 326.658L55.7746 307.335C60.2456 302.886 67.4896 302.89 71.9596 307.335L91.3836 326.658V326.658Z"/>
    <path id="orange_circle2" d="M314.21 330.26C331.495 330.26 345.508 316.319 345.508 299.123C345.508 281.926 331.495 267.986 314.21 267.986C296.925 267.986 282.912 281.926 282.912 299.123C282.912 316.319 296.925 330.26 314.21 330.26Z"/>
    <path id="orange_circle1" d="M421.991 354.552C436.201 354.552 447.721 343.092 447.721 328.955C447.721 314.818 436.201 303.358 421.991 303.358C407.781 303.358 396.261 314.818 396.261 328.955C396.261 343.092 407.781 354.552 421.991 354.552Z"/>
    <path id="red_cube1" d="M382.521 321.06C383.793 322.322 384.802 323.824 385.49 325.478C386.179 327.132 386.534 328.906 386.534 330.698C386.534 332.49 386.179 334.264 385.49 335.918C384.802 337.572 383.793 339.074 382.521 340.336L359.271 363.466C353.921 368.791 345.247 368.789 339.896 363.466L316.647 340.336C311.297 335.012 311.297 326.381 316.647 321.06L339.896 297.928C345.248 292.605 353.921 292.607 359.271 297.928L382.521 321.06Z" />
    <g id="egg1">
      <path id="egg1_1" d="M237.482 353.644C213.99 330.272 213.99 292.243 237.482 268.869C242.829 263.548 251.5 263.548 256.847 268.869L322.692 334.375C328.04 339.698 328.039 348.324 322.692 353.643C299.2 377.015 260.973 377.017 237.482 353.644V353.644Z"/>
      <path id="egg1_2" d="M267.5 284.281C256.536 295.19 256.537 312.873 267.5 323.78C278.461 334.687 296.237 334.687 307.2 323.78C308.02 322.963 308.76 322.098 309.459 321.207L270.083 282.035C269.178 282.731 268.315 283.481 267.5 284.281V284.281Z"/>
    </g>
    <g id="bol">
      <path id="Vector_5" d="M155.641 475.257C121.974 475.257 89.425 463.228 63.991 441.388C38.725 419.692 22.055 389.725 17.05 357.002C16.7859 355.274 16.9001 353.509 17.3845 351.829C17.869 350.149 18.7122 348.594 19.856 347.272C21.0035 345.945 22.4233 344.881 24.0187 344.152C25.6142 343.423 27.3479 343.046 29.102 343.047H477.246C480.8 343.047 484.176 344.589 486.492 347.272C487.636 348.594 488.479 350.149 488.963 351.829C489.448 353.509 489.562 355.274 489.298 357.002C484.293 389.724 467.623 419.692 442.357 441.388C416.923 463.228 384.372 475.257 350.706 475.257H155.641V475.257Z" fill="#9256DC"/>
      <path id="Vector_6" opacity="0.1" d="M60.802 357.002C60.5379 355.274 60.6521 353.509 61.1365 351.829C61.621 350.149 62.4642 348.594 63.608 347.272C64.7555 345.945 66.1753 344.881 67.7707 344.152C69.3662 343.423 71.0999 343.046 72.854 343.047H29.103C25.549 343.047 22.173 344.589 19.857 347.272C18.713 348.594 17.8696 350.149 17.3851 351.829C16.9007 353.509 16.7867 355.274 17.051 357.002C22.056 389.724 38.726 419.692 63.992 441.388C89.426 463.228 121.975 475.257 155.642 475.257H199.394C165.727 475.257 133.178 463.228 107.744 441.388C82.478 419.692 65.807 389.724 60.802 357.002V357.002Z" fill="black"/>
      <path id="Vector_7" d="M136.22 369.189H22.671C21.6304 369.188 20.6 369.395 19.641 369.799C20.9246 374.895 22.4978 379.914 24.353 384.831H136.22C138.294 384.831 140.284 384.007 141.75 382.54C143.217 381.074 144.041 379.084 144.041 377.01C144.041 374.936 143.217 372.946 141.75 371.48C140.284 370.013 138.294 369.189 136.22 369.189ZM109.439 405.576H39.696C38.0415 405.576 36.43 406.103 35.096 407.082C38.0257 411.987 41.2537 416.708 44.762 421.217H109.437C111.511 421.217 113.5 420.393 114.967 418.927C116.433 417.46 117.257 415.471 117.257 413.397C117.257 412.37 117.055 411.353 116.663 410.404C116.27 409.455 115.694 408.593 114.968 407.867C114.242 407.141 113.38 406.564 112.432 406.171C111.483 405.778 110.466 405.576 109.439 405.576V405.576Z" fill="#FF7AD9"/>
      <path id="Vector_8" d="M386.148 493.812C386.148 499.529 381.515 504.163 375.8 504.163H130.548C124.833 504.163 120.2 499.529 120.2 493.812V484.497C120.2 478.78 124.833 474.146 130.548 474.146H375.8C381.515 474.146 386.148 478.781 386.148 484.497V493.812Z" fill="#98e2cf"/>
      <path id="Vector_9" opacity="0.1" d="M163.797 493.812V484.497C163.797 478.78 168.43 474.146 174.145 474.146H130.549C124.834 474.146 120.201 478.781 120.201 484.497V493.812C120.201 499.529 124.834 504.163 130.549 504.163H174.145C168.43 504.163 163.797 499.529 163.797 493.812Z" fill="black"/>
    </g>
  </g>
  <animate xlink:href = "#red_cube1"        attributeName="fill" from="transparent" to="#EF645E"  dur="0.5s" begin="0.2s" fill="freeze"/>
  <animate xlink:href = "#egg1_1"           attributeName="fill" from="transparent" to="white"    dur="0.5s" begin="0.2s" fill="freeze"/>
  <animate xlink:href = "#egg1_2"           attributeName="fill" from="transparent" to="#FFCC60"  dur="0.5s" begin="0.2s" fill="freeze"/>

  <animate xlink:href = "#orange_circle2"   attributeName="fill" from="transparent" to="#FFAB5F"  dur="0.5s" begin="0.6s" fill="freeze"/>
  <animate xlink:href = "#orange_circle3"   attributeName="fill" from="transparent" to="#FFAB5F"  dur="0.5s" begin="0.6" fill="freeze"/>

  <animate xlink:href = "#orange_circle1"   attributeName="fill" from="transparent" to="#FFAB5F"  dur="0.5s" begin="0.8s" fill="freeze"/>
  <animate xlink:href = "#salad2"           attributeName="fill" from="transparent" to="#78B591"  dur="0.5s" begin="0.8s" fill="freeze"/>

  <animate xlink:href = "#red_cube2"        attributeName="fill" from="transparent" to="#EF645E"  dur="0.5s" begin="1.2s" fill="freeze"/>
  <animate xlink:href = "#orange_circle4"   attributeName="fill" from="transparent" to="#FFAB5F"  dur="0.5s" begin="1.2s" fill="freeze"/>

  <animate xlink:href = "#salad1"           attributeName="fill" from="transparent" to="#A5BC79"  dur="0.5s" begin="1.5s" fill="freeze"/>

  <animate xlink:href = "#salad3"           attributeName="fill" from="transparent" to="#78B591"  dur="0.5s" begin="1.8s" fill="freeze"/>
  <animate xlink:href = "#tomato2"          attributeName="fill" from="transparent" to="#EF645E"  dur="0.5s" begin="1.8s" fill="freeze"/>

  <animate xlink:href = "#red_circle1"      attributeName="fill" from="transparent" to="#EF645E"  dur="0.5s" begin="2s" fill="freeze"/>

  <animate xlink:href = "#egg2_1"           attributeName="fill" from="transparent" to="#F9EBCF"  dur="0.5s" begin="2s" fill="freeze"/>
  <animate xlink:href = "#egg2_2"           attributeName="fill" from="transparent" to="#FFCC60"  dur="0.5s" begin="2s" fill="freeze"/>

  <animate xlink:href = "#tomato1"          attributeName="fill" from="transparent" to="#EF645E"  dur="0.5s" begin="2.3s" fill="freeze"/>
  
  <animate xlink:href = "#red_cube3"        attributeName="fill" from="transparent" to="#EF645E"  dur="0.2s" begin="2.5s" fill="freeze"/>
  <animate xlink:href = "#green_cube"       attributeName="fill" from="transparent" to="#A5BC79"  dur="0.2s" begin="2.5s" fill="freeze"/>
</svg>
